<svg width="16" height="16" viewBox="0 0 16 16" fill="none" xmlns="http://www.w3.org/2000/svg">
<path d="M13.7505 5.75C13.7505 5.74662 13.7501 5.74337 13.75 5.74V5.5C13.75 5.30109 13.671 5.11033 13.5303 4.96969L10.0303 1.46969C9.88968 1.32903 9.69892 1.25001 9.50001 1.25H3.49951C3.16811 1.25038 2.85039 1.3822 2.61605 1.61654C2.38171 1.85087 2.24989 2.1686 2.24951 2.5V13.5C2.24989 13.8314 2.38171 14.1491 2.61605 14.3835C2.85039 14.6178 3.16811 14.7496 3.49951 14.75H12.5C12.8314 14.7496 13.1491 14.6178 13.3835 14.3835C13.6178 14.1491 13.7496 13.8314 13.75 13.5V5.76C13.7501 5.75663 13.7505 5.75338 13.7505 5.75ZM11.4393 5H10V3.56063L11.4393 5ZM3.74951 13.25V2.75H8.50001V5.75C8.50001 5.94891 8.57903 6.13968 8.71968 6.28033C8.86033 6.42098 9.0511 6.5 9.25001 6.5H12.25V13.25H3.74951ZM10.75 8.25C10.75 8.44891 10.671 8.63968 10.5303 8.78033C10.3897 8.92098 10.1989 9 10 9H6.00001C5.8011 9 5.61033 8.92098 5.46968 8.78033C5.32903 8.63968 5.25001 8.44891 5.25001 8.25C5.25001 8.05109 5.32903 7.86032 5.46968 7.71967C5.61033 7.57902 5.8011 7.5 6.00001 7.5H10C10.1989 7.5 10.3897 7.57902 10.5303 7.71967C10.671 7.86032 10.75 8.05109 10.75 8.25ZM10.75 10.75C10.75 10.9489 10.671 11.1397 10.5303 11.2803C10.3897 11.421 10.1989 11.5 10 11.5H6.00001C5.8011 11.5 5.61033 11.421 5.46968 11.2803C5.32903 11.1397 5.25001 10.9489 5.25001 10.75C5.25001 10.5511 5.32903 10.3603 5.46968 10.2197C5.61033 10.079 5.8011 10 6.00001 10H10C10.1989 10 10.3897 10.079 10.5303 10.2197C10.671 10.3603 10.75 10.5511 10.75 10.75Z" fill="#027FC6"/>
</svg>
