<svg width="20" height="20" viewBox="0 0 20 20" fill="none" xmlns="http://www.w3.org/2000/svg">
<path d="M7.21326 4.79651C7.06248 4.94728 6.97012 5.15681 6.97042 5.38692L6.97042 5.48819C6.97042 5.94899 7.34346 6.32203 7.80366 6.32144L12.3566 6.32144L4.65483 14.0232C4.32956 14.3485 4.32956 14.8764 4.65483 15.2017C4.9801 15.527 5.50807 15.527 5.83334 15.2017L13.5351 7.49995V12.0529C13.5351 12.5137 13.9081 12.8867 14.3683 12.8861H14.4696C14.9304 12.8861 15.3035 12.5131 15.3029 12.0529V5.38692C15.3029 4.92612 14.9298 4.55308 14.4696 4.55367L7.80366 4.55367C7.57326 4.55367 7.36403 4.64573 7.21326 4.79651Z" fill="#34C759"/>
</svg>
