<svg width="16" height="16" viewBox="0 0 16 16" fill="none" xmlns="http://www.w3.org/2000/svg">
<g clip-path="url(#clip0_290_4787)">
<path d="M14.2968 6.25294C14.0771 6.02381 13.8499 5.78687 13.7757 5.60769C13.7094 5.44719 13.7044 5.11831 13.6999 4.82825C13.6906 4.20337 13.6788 3.42575 13.1265 2.8735C12.5743 2.32125 11.7966 2.30944 11.1718 2.30006C10.8816 2.29569 10.5528 2.29069 10.3924 2.22431C10.2131 2.15013 9.97619 1.92294 9.74712 1.70319C9.30425 1.2785 8.75319 0.75 8 0.75C7.24687 0.75 6.69575 1.2785 6.25294 1.70319C6.02381 1.92294 5.78687 2.15013 5.60769 2.22431C5.44719 2.29063 5.11831 2.29562 4.82825 2.30006C4.20337 2.30944 3.42575 2.32125 2.8735 2.8735C2.32125 3.42575 2.30937 4.20337 2.3 4.82825C2.29562 5.11837 2.29063 5.44719 2.22425 5.60763C2.15006 5.78687 1.92288 6.02381 1.70312 6.25287C1.2785 6.69575 0.75 7.24681 0.75 8C0.75 8.75313 1.2785 9.30425 1.70319 9.74706C1.92294 9.97619 2.15013 10.2131 2.22431 10.3923C2.29063 10.5528 2.29562 10.8817 2.30006 11.1718C2.30944 11.7966 2.32125 12.5743 2.8735 13.1265C3.42575 13.6788 4.20337 13.6906 4.82825 13.6999C5.11837 13.7043 5.44719 13.7093 5.60763 13.7757C5.78687 13.8499 6.02381 14.0771 6.25287 14.2968C6.69575 14.7215 7.24681 15.25 8 15.25C8.75313 15.25 9.30425 14.7215 9.74706 14.2968C9.97619 14.0771 10.2131 13.8499 10.3923 13.7757C10.5528 13.7094 10.8817 13.7044 11.1718 13.6999C11.7966 13.6906 12.5743 13.6788 13.1265 13.1265C13.6788 12.5743 13.6906 11.7966 13.6999 11.1718C13.7043 10.8816 13.7093 10.5528 13.7757 10.3924C13.8499 10.2131 14.0771 9.97619 14.2968 9.74712C14.7215 9.30425 15.25 8.75319 15.25 8C15.25 7.24687 14.7215 6.69575 14.2968 6.25294ZM13.2142 8.70887C12.9131 9.02281 12.5717 9.37875 12.3897 9.81888C12.2138 10.2439 12.2069 10.7041 12.2001 11.1491C12.1951 11.4844 12.1882 11.9436 12.0659 12.0659C11.9436 12.1882 11.4844 12.1951 11.1491 12.2001C10.7041 12.2069 10.2439 12.2138 9.81888 12.3897C9.37875 12.5717 9.02281 12.9131 8.70887 13.2142C8.48637 13.4276 8.15013 13.75 8 13.75C7.84987 13.75 7.51362 13.4275 7.29112 13.2142C6.97719 12.9131 6.62125 12.5717 6.18113 12.3897C5.75612 12.2138 5.29594 12.2069 4.85087 12.2001C4.51562 12.1951 4.05638 12.1882 3.93412 12.0659C3.81181 11.9436 3.80494 11.4844 3.79988 11.1491C3.79312 10.7041 3.78619 10.2439 3.61031 9.81888C3.42825 9.37875 3.08694 9.02281 2.78581 8.70887C2.5725 8.48637 2.25 8.15013 2.25 8C2.25 7.84987 2.5725 7.51362 2.78581 7.29112C3.08694 6.97719 3.42825 6.62125 3.61031 6.18113C3.78619 5.75612 3.79312 5.29594 3.79988 4.85087C3.80488 4.51562 3.81181 4.05638 3.93412 3.93412C4.05638 3.81181 4.51562 3.80494 4.85087 3.79988C5.29594 3.79312 5.75612 3.78619 6.18113 3.61031C6.62125 3.42825 6.97719 3.08694 7.29112 2.78581C7.51362 2.5725 7.84987 2.25 8 2.25C8.15013 2.25 8.48637 2.5725 8.70887 2.78581C9.02281 3.08694 9.37875 3.42825 9.81888 3.61031C10.2439 3.78619 10.7041 3.79312 11.1491 3.79988C11.4844 3.80488 11.9436 3.81181 12.0659 3.93412C12.1882 4.05638 12.1951 4.51562 12.2001 4.85087C12.2069 5.29594 12.2138 5.75612 12.3897 6.18113C12.5717 6.62125 12.9131 6.97719 13.2142 7.29112C13.4276 7.51362 13.75 7.84987 13.75 8C13.75 8.15013 13.4275 8.48637 13.2142 8.70887ZM7.24994 8.25V5C7.24994 4.80109 7.32896 4.61032 7.46961 4.46967C7.61026 4.32902 7.80103 4.25 7.99994 4.25C8.19885 4.25 8.38962 4.32902 8.53027 4.46967C8.67092 4.61032 8.74994 4.80109 8.74994 5V8.25C8.74994 8.44891 8.67092 8.63968 8.53027 8.78033C8.38962 8.92098 8.19885 9 7.99994 9C7.80103 9 7.61026 8.92098 7.46961 8.78033C7.32896 8.63968 7.24994 8.44891 7.24994 8.25ZM8.99994 10.75C8.99994 10.9478 8.94129 11.1411 8.83141 11.3056C8.72153 11.47 8.56535 11.5982 8.38262 11.6739C8.19989 11.7496 7.99883 11.7694 7.80485 11.7308C7.61087 11.6922 7.43268 11.597 7.29283 11.4571C7.15298 11.3173 7.05774 11.1391 7.01915 10.9451C6.98057 10.7511 7.00037 10.55 7.07606 10.3673C7.15175 10.1846 7.27992 10.0284 7.44437 9.91853C7.60882 9.80865 7.80216 9.75 7.99994 9.75C8.26515 9.75 8.51951 9.85536 8.70704 10.0429C8.89458 10.2304 8.99994 10.4848 8.99994 10.75Z" fill="#027FC6"/>
</g>
<defs>
<clipPath id="clip0_290_4787">
<rect width="16" height="16" fill="white"/>
</clipPath>
</defs>
</svg>
