<svg width="12" height="10" viewBox="0 0 12 10" fill="none" xmlns="http://www.w3.org/2000/svg">
<path d="M11.2966 3.91123C11.5678 4.26597 11.5678 4.74487 11.2966 5.09904C10.4424 6.21419 8.39287 8.51028 6.00009 8.51028C3.6073 8.51028 1.55782 6.21419 0.703578 5.09904C0.571628 4.92919 0.5 4.72022 0.5 4.50514C0.5 4.29005 0.571628 4.08109 0.703578 3.91123C1.55782 2.79609 3.6073 0.5 6.00009 0.5C8.39287 0.5 10.4424 2.79609 11.2966 3.91123V3.91123Z" stroke="#3C5C8B" stroke-linecap="round" stroke-linejoin="round"/>
<path d="M6.00018 6.22179C6.94817 6.22179 7.71667 5.4533 7.71667 4.50531C7.71667 3.55732 6.94817 2.78882 6.00018 2.78882C5.05219 2.78882 4.28369 3.55732 4.28369 4.50531C4.28369 5.4533 5.05219 6.22179 6.00018 6.22179Z" stroke="#3C5C8B" stroke-linecap="round" stroke-linejoin="round"/>
</svg>
