<svg width="17" height="17" viewBox="0 0 17 17" fill="none" xmlns="http://www.w3.org/2000/svg">
<path d="M8.50018 10.682C9.70516 10.682 10.682 9.70516 10.682 8.50018C10.682 7.29519 9.70516 6.31836 8.50018 6.31836C7.29519 6.31836 6.31836 7.29519 6.31836 8.50018C6.31836 9.70516 7.29519 10.682 8.50018 10.682Z" stroke="black" stroke-linecap="round" stroke-linejoin="round"/>
<path d="M13.8818 10.6818C13.785 10.9012 13.7561 11.1445 13.7989 11.3804C13.8417 11.6164 13.9542 11.8341 14.1218 12.0055L14.1655 12.0491C14.3007 12.1842 14.408 12.3446 14.4812 12.5212C14.5544 12.6978 14.5921 12.887 14.5921 13.0782C14.5921 13.2693 14.5544 13.4586 14.4812 13.6352C14.408 13.8118 14.3007 13.9722 14.1655 14.1073C14.0304 14.2425 13.8699 14.3498 13.6934 14.423C13.5168 14.4962 13.3275 14.5339 13.1364 14.5339C12.9452 14.5339 12.7559 14.4962 12.5794 14.423C12.4028 14.3498 12.2424 14.2425 12.1073 14.1073L12.0636 14.0636C11.8922 13.896 11.6745 13.7835 11.4386 13.7407C11.2027 13.6979 10.9594 13.7268 10.74 13.8236C10.5249 13.9158 10.3414 14.0689 10.2122 14.264C10.083 14.4591 10.0137 14.6878 10.0127 14.9218V15.0455C10.0127 15.4312 9.85948 15.8012 9.5867 16.074C9.31392 16.3468 8.94395 16.5 8.55818 16.5C8.17241 16.5 7.80244 16.3468 7.52966 16.074C7.25688 15.8012 7.10364 15.4312 7.10364 15.0455V14.98C7.09801 14.7393 7.02009 14.5058 6.88001 14.31C6.73993 14.1141 6.54417 13.9649 6.31818 13.8818C6.09882 13.785 5.8555 13.7561 5.61957 13.7989C5.38365 13.8417 5.16595 13.9542 4.99455 14.1218L4.95091 14.1655C4.81582 14.3007 4.6554 14.408 4.47882 14.4812C4.30224 14.5544 4.11297 14.5921 3.92182 14.5921C3.73067 14.5921 3.54139 14.5544 3.36481 14.4812C3.18824 14.408 3.02782 14.3007 2.89273 14.1655C2.75749 14.0304 2.6502 13.8699 2.577 13.6934C2.50381 13.5168 2.46613 13.3275 2.46613 13.1364C2.46613 12.9452 2.50381 12.7559 2.577 12.5794C2.6502 12.4028 2.75749 12.2424 2.89273 12.1073L2.93636 12.0636C3.10403 11.8922 3.2165 11.6745 3.25928 11.4386C3.30205 11.2027 3.27317 10.9594 3.17636 10.74C3.08417 10.5249 2.93109 10.3414 2.73597 10.2122C2.54085 10.083 2.31221 10.0137 2.07818 10.0127H1.95455C1.56878 10.0127 1.19881 9.85948 0.926027 9.5867C0.653246 9.31392 0.5 8.94395 0.5 8.55818C0.5 8.17241 0.653246 7.80244 0.926027 7.52966C1.19881 7.25688 1.56878 7.10364 1.95455 7.10364H2.02C2.26072 7.09801 2.49419 7.02009 2.69004 6.88001C2.88589 6.73993 3.03507 6.54417 3.11818 6.31818C3.21499 6.09882 3.24387 5.8555 3.20109 5.61957C3.15832 5.38365 3.04585 5.16595 2.87818 4.99455L2.83455 4.95091C2.69931 4.81582 2.59202 4.6554 2.51882 4.47882C2.44562 4.30224 2.40795 4.11297 2.40795 3.92182C2.40795 3.73067 2.44562 3.54139 2.51882 3.36481C2.59202 3.18824 2.69931 3.02782 2.83455 2.89273C2.96963 2.75749 3.13005 2.6502 3.30663 2.577C3.48321 2.50381 3.67249 2.46613 3.86364 2.46613C4.05479 2.46613 4.24406 2.50381 4.42064 2.577C4.59722 2.6502 4.75764 2.75749 4.89273 2.89273L4.93636 2.93636C5.10777 3.10403 5.32547 3.2165 5.56139 3.25928C5.79731 3.30205 6.04064 3.27317 6.26 3.17636H6.31818C6.53329 3.08417 6.71674 2.93109 6.84596 2.73597C6.97518 2.54085 7.04452 2.31221 7.04545 2.07818V1.95455C7.04545 1.56878 7.1987 1.19881 7.47148 0.926027C7.74426 0.653246 8.11423 0.5 8.5 0.5C8.88577 0.5 9.25574 0.653246 9.52852 0.926027C9.8013 1.19881 9.95455 1.56878 9.95455 1.95455V2.02C9.95548 2.25403 10.0248 2.48267 10.154 2.67779C10.2833 2.87291 10.4667 3.02599 10.6818 3.11818C10.9012 3.21499 11.1445 3.24387 11.3804 3.20109C11.6164 3.15832 11.8341 3.04585 12.0055 2.87818L12.0491 2.83455C12.1842 2.69931 12.3446 2.59202 12.5212 2.51882C12.6978 2.44562 12.887 2.40795 13.0782 2.40795C13.2693 2.40795 13.4586 2.44562 13.6352 2.51882C13.8118 2.59202 13.9722 2.69931 14.1073 2.83455C14.2425 2.96963 14.3498 3.13005 14.423 3.30663C14.4962 3.48321 14.5339 3.67249 14.5339 3.86364C14.5339 4.05479 14.4962 4.24406 14.423 4.42064C14.3498 4.59722 14.2425 4.75764 14.1073 4.89273L14.0636 4.93636C13.896 5.10777 13.7835 5.32547 13.7407 5.56139C13.6979 5.79731 13.7268 6.04064 13.8236 6.26V6.31818C13.9158 6.53329 14.0689 6.71674 14.264 6.84596C14.4591 6.97518 14.6878 7.04452 14.9218 7.04545H15.0455C15.4312 7.04545 15.8012 7.1987 16.074 7.47148C16.3468 7.74426 16.5 8.11423 16.5 8.5C16.5 8.88577 16.3468 9.25574 16.074 9.52852C15.8012 9.8013 15.4312 9.95455 15.0455 9.95455H14.98C14.746 9.95548 14.5173 10.0248 14.3222 10.154C14.1271 10.2833 13.974 10.4667 13.8818 10.6818V10.6818Z" stroke="black" stroke-linecap="round" stroke-linejoin="round"/>
</svg>
