<svg width="16" height="16" viewBox="0 0 16 16" fill="none" xmlns="http://www.w3.org/2000/svg">
<path d="M14.2501 4.25023C14.2502 3.7887 14.1224 3.33617 13.8811 2.94277C13.6398 2.54936 13.2943 2.23044 12.8828 2.02133C12.4714 1.81222 12.0101 1.72108 11.55 1.75802C11.09 1.79495 10.6492 1.95852 10.2764 2.23059C9.90355 2.50267 9.61333 2.87263 9.43786 3.2995C9.26239 3.72637 9.2085 4.19348 9.28218 4.64909C9.35585 5.1047 9.55421 5.53102 9.85528 5.88083C10.1563 6.23063 10.5484 6.49027 10.9879 6.63098C10.9571 6.80434 10.8663 6.96134 10.7315 7.07454C10.5966 7.18774 10.4263 7.24993 10.2502 7.25023L5.75012 7.25036C5.49462 7.2501 5.24096 7.29356 5.00012 7.37886V6.63511C5.5699 6.45592 6.0567 6.07865 6.37239 5.57161C6.68808 5.06456 6.81181 4.46124 6.72116 3.87086C6.63052 3.28049 6.3315 2.74208 5.87823 2.35309C5.42497 1.96411 4.84741 1.75026 4.25012 1.75026C3.65283 1.75026 3.07527 1.96411 2.622 2.35309C2.16874 2.74208 1.86972 3.28049 1.77907 3.87086C1.68843 4.46124 1.81215 5.06456 2.12785 5.57161C2.44354 6.07865 2.93034 6.45592 3.50012 6.63511V9.36542C2.93071 9.54435 2.44409 9.92106 2.12819 10.4275C1.8123 10.9339 1.68797 11.5366 1.77768 12.1267C1.86738 12.7167 2.16521 13.2553 2.61733 13.6449C3.06944 14.0346 3.64603 14.2497 4.24289 14.2513C4.83975 14.2529 5.4175 14.041 5.87174 13.6538C6.32598 13.2666 6.62673 12.7297 6.71966 12.1401C6.81258 11.5506 6.69154 10.9472 6.37842 10.4391C6.06529 9.93094 5.58073 9.55158 5.01231 9.36954C5.04315 9.1962 5.13394 9.0392 5.26881 8.92602C5.40368 8.81283 5.57405 8.75065 5.75012 8.75036L10.2502 8.75023C10.823 8.7495 11.3741 8.53053 11.7912 8.13789C12.2084 7.74525 12.4603 7.20844 12.4956 6.63667C13.0038 6.47717 13.448 6.15978 13.7635 5.73063C14.079 5.30147 14.2495 4.78289 14.2501 4.25023ZM4.25012 3.25023C4.4479 3.25023 4.64124 3.30888 4.80569 3.41876C4.97014 3.52864 5.09831 3.68482 5.174 3.86755C5.24969 4.05027 5.26949 4.25134 5.2309 4.44532C5.19232 4.6393 5.09708 4.81749 4.95723 4.95734C4.81737 5.09719 4.63919 5.19243 4.44521 5.23102C4.25123 5.2696 4.05016 5.2498 3.86743 5.17411C3.68471 5.09842 3.52853 4.97025 3.41865 4.8058C3.30877 4.64135 3.25012 4.44801 3.25012 4.25023C3.25042 3.98511 3.35587 3.73093 3.54334 3.54345C3.73081 3.35598 3.98499 3.25053 4.25012 3.25023ZM4.25012 12.7504C4.05234 12.7504 3.859 12.6917 3.69455 12.5818C3.5301 12.4719 3.40193 12.3158 3.32624 12.133C3.25055 11.9503 3.23075 11.7492 3.26933 11.5553C3.30792 11.3613 3.40316 11.1831 3.54301 11.0433C3.68286 10.9034 3.86105 10.8082 4.05503 10.7696C4.24901 10.731 4.45008 10.7508 4.6328 10.8265C4.81553 10.9022 4.97171 11.0303 5.08159 11.1948C5.19147 11.3592 5.25012 11.5526 5.25012 11.7504C5.24982 12.0155 5.14437 12.2697 4.9569 12.4571C4.76942 12.6446 4.51524 12.7501 4.25012 12.7504ZM11.7501 5.25023C11.5523 5.25023 11.359 5.19158 11.1945 5.0817C11.0301 4.97182 10.9019 4.81564 10.8262 4.63292C10.7506 4.45019 10.7307 4.24912 10.7693 4.05514C10.8079 3.86116 10.9032 3.68298 11.043 3.54313C11.1829 3.40327 11.361 3.30803 11.555 3.26945C11.749 3.23086 11.9501 3.25066 12.1328 3.32635C12.3155 3.40204 12.4717 3.53021 12.5816 3.69466C12.6915 3.85911 12.7501 4.05245 12.7501 4.25023C12.7498 4.51536 12.6444 4.76954 12.4569 4.95701C12.2694 5.14448 12.0152 5.24993 11.7501 5.25023Z" fill="#027FC6"/>
</svg>
