<svg width="24" height="24" viewBox="0 0 24 24" fill="none" xmlns="http://www.w3.org/2000/svg">
<path fill-rule="evenodd" clip-rule="evenodd" d="M15.6014 2.39886C15.2695 2.06692 14.7313 2.06692 14.3994 2.39886C14.0674 2.73081 14.0674 3.269 14.3994 3.60094L18.9483 8.1499H8.00039C6.44887 8.1499 4.9609 8.76624 3.86382 9.86333C2.76673 10.9604 2.15039 12.4484 2.15039 13.9999C2.15039 15.5514 2.76673 17.0394 3.86382 18.1365C4.9609 19.2336 6.44887 19.8499 8.00039 19.8499H15.0004C15.4698 19.8499 15.8504 19.4693 15.8504 18.9999C15.8504 18.5305 15.4698 18.1499 15.0004 18.1499H8.00039C6.89974 18.1499 5.84417 17.7127 5.0659 16.9344C4.28762 16.1561 3.85039 15.1006 3.85039 13.9999C3.85039 12.8993 4.28762 11.8437 5.0659 11.0654C5.84417 10.2871 6.89974 9.8499 8.00039 9.8499H18.9483L14.3994 14.3989C14.0674 14.7308 14.0674 15.269 14.3994 15.6009C14.7313 15.9329 15.2695 15.9329 15.6014 15.6009L21.6014 9.60094C21.9334 9.269 21.9334 8.73081 21.6014 8.39886L15.6014 2.39886Z" fill="#347AE2"/>
</svg>
