<svg width="24" height="24" viewBox="0 0 24 24" fill="none" xmlns="http://www.w3.org/2000/svg">
<path fill-rule="evenodd" clip-rule="evenodd" d="M3.85039 11.9999C3.85039 7.49878 7.49927 3.8499 12.0004 3.8499C12.8913 3.8499 13.7472 3.99254 14.5475 4.25558C14.9934 4.40216 15.4738 4.15946 15.6204 3.71349C15.767 3.26752 15.5243 2.78716 15.0783 2.64058C14.1088 2.32193 13.0739 2.1499 12.0004 2.1499C6.56039 2.1499 2.15039 6.5599 2.15039 11.9999C2.15039 17.4399 6.56039 21.8499 12.0004 21.8499C17.4404 21.8499 21.8504 17.4399 21.8504 11.9999C21.8504 11.5305 21.4698 11.1499 21.0004 11.1499C20.5309 11.1499 20.1504 11.5305 20.1504 11.9999C20.1504 16.501 16.5015 20.1499 12.0004 20.1499C7.49927 20.1499 3.85039 16.501 3.85039 11.9999ZM19.6027 7.59964C19.934 7.26697 19.9328 6.72878 19.6001 6.39756C19.2675 6.06633 18.7293 6.0675 18.398 6.40017L12.05 12.7758L9.62132 10.178C9.30073 9.83502 8.76284 9.81691 8.41992 10.1375C8.07699 10.4581 8.05888 10.996 8.37946 11.3389L11.4098 14.5804C11.5673 14.7489 11.7866 14.8462 12.0173 14.8498C12.248 14.8534 12.4703 14.7631 12.633 14.5996L19.6027 7.59964Z" fill="#347AE2"/>
</svg>
