<svg width="80" height="80" viewBox="0 0 80 80" fill="none" xmlns="http://www.w3.org/2000/svg">
<path d="M34.5093 65.8819C41.47 65.8805 48.2301 63.5503 53.7132 59.2623L70.9524 76.5015L76.4975 70.9564L59.2583 53.7172C63.5485 48.2336 65.8801 41.4719 65.8818 34.5094C65.8818 17.2113 51.8073 3.13684 34.5093 3.13684C17.2112 3.13684 3.13672 17.2113 3.13672 34.5094C3.13672 51.8074 17.2112 65.8819 34.5093 65.8819ZM34.5093 10.98C47.4857 10.98 58.0387 21.5329 58.0387 34.5094C58.0387 47.4858 47.4857 58.0388 34.5093 58.0388C21.5328 58.0388 10.9799 47.4858 10.9799 34.5094C10.9799 21.5329 21.5328 10.98 34.5093 10.98Z" fill="#CCCCCC"/>
</svg>
