<svg width="20" height="20" viewBox="0 0 20 20" fill="none" xmlns="http://www.w3.org/2000/svg">
<path d="M12.4996 15.202C12.6504 15.0513 12.7428 14.8417 12.7425 14.6116L12.7425 14.5103C12.7425 14.0495 12.3694 13.6765 11.9092 13.6771L7.35631 13.6771L15.0581 5.97534C15.3833 5.65007 15.3833 5.1221 15.0581 4.79683C14.7328 4.47156 14.2048 4.47156 13.8796 4.79683L6.1778 12.4986V7.94567C6.1778 7.48487 5.80476 7.11183 5.34455 7.11242H5.24327C4.78248 7.11242 4.40944 7.48546 4.41003 7.94567V14.6116C4.41003 15.0724 4.78306 15.4455 5.24327 15.4449L11.9092 15.4449C12.1396 15.4449 12.3489 15.3528 12.4996 15.202Z" fill="#FF3B30"/>
</svg>
