<svg width="3" height="5" viewBox="0 0 3 5" fill="none" xmlns="http://www.w3.org/2000/svg">
<path d="M0.957666 3.45766C0.957666 3.14404 0.993605 2.89427 1.06548 2.70833C1.13736 2.5224 1.26843 2.33983 1.4587 2.16062C1.65108 1.97917 1.77898 1.83244 1.8424 1.72043C1.90582 1.60618 1.93753 1.48634 1.93753 1.36089C1.93753 0.982303 1.77263 0.793011 1.44284 0.793011C1.2864 0.793011 1.16061 0.844534 1.06548 0.947581C0.972464 1.04839 0.923841 1.1884 0.919613 1.36761H0C0.00422811 0.93974 0.134242 0.604839 0.390043 0.362903C0.647957 0.120968 0.99889 0 1.44284 0C1.89102 0 2.23878 0.115367 2.48613 0.346102C2.73347 0.574597 2.85714 0.898297 2.85714 1.3172C2.85714 1.50762 2.81698 1.68795 2.73664 1.8582C2.65631 2.02621 2.51572 2.21326 2.31489 2.41935L2.05803 2.67809C1.89736 2.84162 1.8054 3.03315 1.78215 3.25269L1.76946 3.45766H0.957666ZM0.865705 4.48925C0.865705 4.33916 0.913271 4.21595 1.0084 4.11962C1.10565 4.02106 1.22932 3.97177 1.37942 3.97177C1.52952 3.97177 1.65213 4.02106 1.74726 4.11962C1.84451 4.21595 1.89313 4.33916 1.89313 4.48925C1.89313 4.6371 1.84557 4.75918 1.75044 4.85551C1.65742 4.95184 1.53375 5 1.37942 5C1.22509 5 1.10036 4.95184 1.00523 4.85551C0.912214 4.75918 0.865705 4.6371 0.865705 4.48925Z" fill="#999999"/>
</svg>
