<svg width="12" height="13" viewBox="0 0 12 13" fill="none" xmlns="http://www.w3.org/2000/svg">
<path d="M6 0C4.81331 0 3.65328 0.370989 2.66658 1.06605C1.67989 1.76112 0.910851 2.74904 0.456725 3.90489C0.0025997 5.06074 -0.11622 6.33261 0.115291 7.55965C0.346802 8.78669 0.918247 9.91381 1.75736 10.7985C2.59648 11.6831 3.66557 12.2856 4.82946 12.5296C5.99335 12.7737 7.19975 12.6484 8.2961 12.1697C9.39246 11.6909 10.3295 10.8801 10.9888 9.8399C11.6481 8.79966 12 7.57667 12 6.32559C12 4.64794 11.3679 3.039 10.2426 1.85272C9.11742 0.666444 7.5913 0 6 0ZM6 2.71097C6.12715 2.71097 6.25144 2.75072 6.35715 2.82519C6.46287 2.89966 6.54527 3.00551 6.59392 3.12935C6.64258 3.25319 6.65531 3.38946 6.63051 3.52093C6.6057 3.6524 6.54448 3.77316 6.45457 3.86794C6.36466 3.96273 6.25012 4.02728 6.12542 4.05343C6.00071 4.07958 5.87146 4.06616 5.75399 4.01486C5.63652 3.96356 5.53612 3.87669 5.46549 3.76524C5.39485 3.65379 5.35714 3.52275 5.35714 3.38871C5.35714 3.20896 5.42487 3.03657 5.54543 2.90947C5.66599 2.78237 5.82951 2.71097 6 2.71097ZM7.71429 9.99669H4.28572V8.98008H5.51786V6.38207H4.71429V5.36545H6.48214V8.98008H7.71429V9.99669Z" fill="#CCCCCC"/>
</svg>
