<svg width="17" height="16" viewBox="0 0 17 16" fill="none" xmlns="http://www.w3.org/2000/svg">
<path d="M5.66556 1.14279C6.22591 1.14279 6.77367 1.31035 7.23959 1.62428C7.7055 1.93821 8.06863 2.38441 8.28307 2.90645C8.49751 3.4285 8.55361 4.00294 8.44429 4.55714C8.33498 5.11134 8.06514 5.6204 7.66892 6.01996C7.27269 6.41952 6.76787 6.69162 6.21829 6.80185C5.6687 6.91209 5.09905 6.85551 4.58135 6.63928C4.06366 6.42304 3.62118 6.05685 3.30987 5.58702C2.99855 5.11719 2.83239 4.56483 2.83239 3.99977C2.83239 3.24205 3.13089 2.51537 3.66221 1.97958C4.19353 1.44379 4.91416 1.14279 5.66556 1.14279ZM5.66556 0C4.88107 0 4.1142 0.234582 3.46193 0.674083C2.80965 1.11358 2.30126 1.73826 2.00105 2.46912C1.70084 3.19999 1.62229 4.00421 1.77534 4.78009C1.92838 5.55597 2.30615 6.26866 2.86087 6.82804C3.41558 7.38741 4.12233 7.76835 4.89175 7.92269C5.66116 8.07702 6.45868 7.99781 7.18345 7.69508C7.90822 7.39234 8.5277 6.87968 8.96353 6.22192C9.39937 5.56416 9.632 4.79085 9.632 3.99977C9.632 2.93897 9.21411 1.92161 8.47026 1.17151C7.72641 0.421403 6.71753 0 5.66556 0Z" fill="black"/>
<path d="M11.3327 15.999H10.1994V13.1421C10.1994 12.3843 9.90092 11.6577 9.3696 11.1219C8.83828 10.5861 8.11765 10.2851 7.36624 10.2851H3.96644C3.21504 10.2851 2.49441 10.5861 1.96308 11.1219C1.43176 11.6577 1.13327 12.3843 1.13327 13.1421V15.999H0V13.1421C0 12.0813 0.417891 11.0639 1.16174 10.3138C1.90559 9.5637 2.91447 9.1423 3.96644 9.1423H7.36624C8.41821 9.1423 9.42709 9.5637 10.1709 10.3138C10.9148 11.0639 11.3327 12.0813 11.3327 13.1421V15.999Z" fill="black"/>
<path d="M11.3333 1.143H16.9997V2.28579H11.3333V1.143Z" fill="black"/>
<path d="M11.3333 3.99977H16.9997V5.14256H11.3333V3.99977Z" fill="black"/>
<path d="M11.3333 6.85654H15.2998V7.99933H11.3333V6.85654Z" fill="black"/>
</svg>
