<svg width="24" height="24" viewBox="0 0 24 24" fill="none" xmlns="http://www.w3.org/2000/svg">
<path fill-rule="evenodd" clip-rule="evenodd" d="M8.35039 7.4999C8.35039 5.85156 9.88767 4.3499 12.0004 4.3499C14.1131 4.3499 15.6504 5.85156 15.6504 7.4999C15.6504 9.14825 14.1131 10.6499 12.0004 10.6499C9.88767 10.6499 8.35039 9.14825 8.35039 7.4999ZM12.0004 2.6499C9.14255 2.6499 6.65039 4.72997 6.65039 7.4999C6.65039 10.2698 9.14255 12.3499 12.0004 12.3499C14.8582 12.3499 17.3504 10.2698 17.3504 7.4999C17.3504 4.72997 14.8582 2.6499 12.0004 2.6499ZM5.35039 17.9999C5.35039 17.4298 5.83901 16.7627 7.1759 16.1959C8.45019 15.6557 10.2058 15.3499 12.0004 15.3499C13.7757 15.3499 15.5301 15.7072 16.8114 16.2766C17.453 16.5618 17.9359 16.8824 18.2464 17.2018C18.5532 17.5174 18.6504 17.7848 18.6504 17.9999C18.6504 18.0493 18.6335 18.178 18.3879 18.382C18.1349 18.5923 17.7117 18.8152 17.0956 19.0148C15.8707 19.4116 14.0923 19.6499 12.0004 19.6499C9.90849 19.6499 8.13003 19.4116 6.90518 19.0148C6.28912 18.8152 5.86589 18.5923 5.61285 18.382C5.36731 18.178 5.35039 18.0493 5.35039 17.9999ZM12.0004 13.6499C10.045 13.6499 8.05059 13.9787 6.51238 14.6308C5.03677 15.2563 3.65039 16.3392 3.65039 17.9999C3.65039 18.7152 4.03526 19.2814 4.52633 19.6895C5.00989 20.0913 5.65809 20.3978 6.38131 20.6321C7.83503 21.103 9.80658 21.3499 12.0004 21.3499C14.1942 21.3499 16.1657 21.103 17.6195 20.6321C18.3427 20.3978 18.9909 20.0913 19.4745 19.6895C19.9655 19.2814 20.3504 18.7152 20.3504 17.9999C20.3504 17.215 19.9788 16.5449 19.4653 16.0168C18.9555 15.4924 18.2665 15.063 17.5019 14.7232C15.9706 14.0426 13.9751 13.6499 12.0004 13.6499Z" fill="#7C8DB5"/>
</svg>
