<svg width="24" height="24" viewBox="0 0 24 24" fill="none" xmlns="http://www.w3.org/2000/svg">
<path fill-rule="evenodd" clip-rule="evenodd" d="M3.85039 12.0004C3.85039 7.49927 7.49927 3.85039 12.0004 3.85039C16.5015 3.85039 20.1504 7.49927 20.1504 12.0004C20.1504 16.5015 16.5015 20.1504 12.0004 20.1504C7.49927 20.1504 3.85039 16.5015 3.85039 12.0004ZM12.0004 2.15039C6.56039 2.15039 2.15039 6.56039 2.15039 12.0004C2.15039 17.4404 6.56039 21.8504 12.0004 21.8504C17.4404 21.8504 21.8504 17.4404 21.8504 12.0004C21.8504 6.56039 17.4404 2.15039 12.0004 2.15039ZM11.1504 12.0004C11.1504 12.4698 11.5309 12.8504 12.0004 12.8504C12.4698 12.8504 12.8504 12.4698 12.8504 12.0004V8.0004C12.8504 7.53096 12.4698 7.1504 12.0004 7.1504C11.5309 7.1504 11.1504 7.53096 11.1504 8.0004V12.0004ZM12.0004 14.3504C11.3653 14.3504 10.8504 14.8653 10.8504 15.5004C10.8504 16.1355 11.3653 16.6504 12.0004 16.6504C12.6355 16.6504 13.1504 16.1355 13.1504 15.5004C13.1504 14.8653 12.6355 14.3504 12.0004 14.3504Z" fill="#7C8DB5"/>
</svg>
