<svg width="20" height="20" viewBox="0 0 20 20" fill="none" xmlns="http://www.w3.org/2000/svg">
<g clip-path="url(#clip0_268_1802)">
<path d="M8.62732 16.4706C10.3675 16.4702 12.0575 15.8877 13.4283 14.8157L17.7381 19.1255L19.1244 17.7392L14.8146 13.4294C15.8871 12.0585 16.47 10.3681 16.4705 8.62744C16.4705 4.30293 12.9518 0.784302 8.62732 0.784302C4.30281 0.784302 0.78418 4.30293 0.78418 8.62744C0.78418 12.9519 4.30281 16.4706 8.62732 16.4706ZM8.62732 2.74509C11.8714 2.74509 14.5097 5.38332 14.5097 8.62744C14.5097 11.8716 11.8714 14.5098 8.62732 14.5098C5.3832 14.5098 2.74496 11.8716 2.74496 8.62744C2.74496 5.38332 5.3832 2.74509 8.62732 2.74509Z" fill="#999999"/>
</g>
<defs>
<clipPath id="clip0_268_1802">
<rect width="20" height="20" fill="white"/>
</clipPath>
</defs>
</svg>
