<svg width="24" height="24" viewBox="0 0 24 24" fill="none" xmlns="http://www.w3.org/2000/svg">
<path fill-rule="evenodd" clip-rule="evenodd" d="M6.8499 9.00039C6.8499 7.6815 7.29049 6.3904 8.1352 5.4401C8.96601 4.50544 10.2306 3.85039 11.9999 3.85039C13.7693 3.85039 15.0338 4.50544 15.8646 5.4401C16.7093 6.3904 17.1499 7.6815 17.1499 9.00039C17.1499 10.26 17.7765 11.1986 18.2541 11.9141L18.2927 11.9719C18.8109 12.7493 19.1499 13.2942 19.1499 14.0004C19.1499 14.9746 18.4562 15.7582 17.0163 16.3367C15.5989 16.9062 13.7184 17.1504 11.9999 17.1504C10.2814 17.1504 8.4009 16.9062 6.98347 16.3367C5.54363 15.7582 4.8499 14.9746 4.8499 14.0004C4.8499 13.3069 5.17412 12.83 5.69801 12.0758C6.20164 11.3508 6.8499 10.4082 6.8499 9.00039ZM11.9999 2.15039C9.76925 2.15039 8.0338 2.99534 6.86461 4.31068C5.70932 5.61038 5.1499 7.31928 5.1499 9.00039C5.1499 9.83392 4.79817 10.3914 4.30179 11.106L4.23206 11.2061C3.76246 11.8789 3.1499 12.7565 3.1499 14.0004C3.1499 16.0261 4.6784 17.2426 6.34968 17.9141C8.04336 18.5946 10.1628 18.8504 11.9999 18.8504C13.837 18.8504 15.9564 18.5946 17.6501 17.9141C19.3214 17.2426 20.8499 16.0261 20.8499 14.0004C20.8499 12.7408 20.2233 11.8022 19.7457 11.0867L19.7071 11.0289C19.1889 10.2515 18.8499 9.70661 18.8499 9.00039C18.8499 7.31928 18.2905 5.61038 17.1352 4.31068C15.966 2.99534 14.2306 2.15039 11.9999 2.15039ZM9.52841 19.2931C9.91593 19.0348 10.4384 19.1367 10.7009 19.5197L10.7073 19.5282C10.7163 19.5401 10.734 19.5625 10.7602 19.5919C10.8131 19.6515 10.8969 19.7356 11.0099 19.8204C11.2334 19.988 11.5589 20.1504 11.9999 20.1504C12.4409 20.1504 12.7664 19.988 12.9899 19.8204C13.1029 19.7356 13.1867 19.6515 13.2396 19.5919C13.2658 19.5625 13.2835 19.5401 13.2925 19.5282L13.2989 19.5197C13.5614 19.1367 14.0839 19.0348 14.4714 19.2931C14.862 19.5535 14.9675 20.0813 14.7071 20.4719L13.9999 20.0004C14.7071 20.4719 14.7069 20.4722 14.7067 20.4725L14.7063 20.4732L14.7053 20.4746L14.7032 20.4778L14.6982 20.4851L14.6848 20.5042C14.6744 20.5188 14.6611 20.5371 14.6448 20.5585C14.6122 20.6013 14.5674 20.657 14.5102 20.7213C14.3964 20.8493 14.2302 21.0152 14.0099 21.1804C13.5668 21.5127 12.8922 21.8504 11.9999 21.8504C11.1076 21.8504 10.433 21.5127 9.9899 21.1804C9.76961 21.0152 9.60336 20.8493 9.4896 20.7213C9.43243 20.657 9.38763 20.6013 9.35504 20.5585C9.33871 20.5371 9.32537 20.5188 9.315 20.5042L9.30164 20.4851L9.2966 20.4778L9.2945 20.4746L9.29354 20.4732L9.29309 20.4725C9.29287 20.4722 9.29266 20.4719 9.9999 20.0004L9.29266 20.4719C9.03226 20.0813 9.13781 19.5535 9.52841 19.2931Z" fill="black"/>
</svg>
