<svg width="24" height="24" viewBox="0 0 24 24" fill="none" xmlns="http://www.w3.org/2000/svg">
<path fill-rule="evenodd" clip-rule="evenodd" d="M3.85039 12.0004C3.85039 9.99154 3.85065 8.45457 3.91178 7.26267C3.9737 6.05512 4.09545 5.30143 4.2896 4.81607C4.45901 4.39254 4.66958 4.20078 4.99597 4.07384C5.39669 3.91801 6.00424 3.85039 7.00039 3.85039C7.9742 3.85039 8.65363 3.91212 9.1285 4.01765C9.60186 4.12284 9.80488 4.25696 9.89935 4.35143C9.98359 4.43568 10.055 4.56084 10.0995 4.82763C10.148 5.11877 10.1504 5.47883 10.1504 6.00039C10.1504 6.46983 10.5309 6.85039 11.0004 6.85039C11.4698 6.85039 11.8504 6.46983 11.8504 6.00039L11.8504 5.95782V5.9578C11.8505 5.49151 11.8505 4.99342 11.7763 4.54815C11.6958 4.06494 11.5172 3.56511 11.1014 3.14935C10.6959 2.74382 10.1489 2.50294 9.49728 2.35813C8.84715 2.21366 8.02659 2.15039 7.00039 2.15039C5.99654 2.15039 5.1041 2.20777 4.37981 2.48944C3.58121 2.80001 3.04177 3.35824 2.71119 4.18471C2.40533 4.94935 2.27708 5.94566 2.21401 7.17561C2.15039 8.41611 2.15039 9.99623 2.15039 11.9759V11.9761V12.0004V12.0247V12.0249C2.15039 14.0046 2.15039 15.5847 2.21401 16.8252C2.27708 18.0551 2.40533 19.0514 2.71119 19.8161C3.04177 20.6425 3.58121 21.2008 4.37981 21.5113C5.1041 21.793 5.99654 21.8504 7.00039 21.8504C8.02659 21.8504 8.84715 21.7871 9.49728 21.6427C10.1489 21.4978 10.6959 21.257 11.1014 20.8514C11.5172 20.4357 11.6958 19.9358 11.7763 19.4526C11.8505 19.0074 11.8505 18.5093 11.8504 18.043V18.043L11.8504 18.0004C11.8504 17.5309 11.4698 17.1504 11.0004 17.1504C10.5309 17.1504 10.1504 17.5309 10.1504 18.0004C10.1504 18.522 10.148 18.882 10.0995 19.1732C10.055 19.4399 9.98359 19.5651 9.89935 19.6494C9.80488 19.7438 9.60186 19.8779 9.1285 19.9831C8.65363 20.0887 7.9742 20.1504 7.00039 20.1504C6.00424 20.1504 5.39669 20.0828 4.99597 19.9269C4.66958 19.8 4.45901 19.6082 4.2896 19.1847C4.09545 18.6993 3.9737 17.9457 3.91178 16.7381C3.85065 15.5462 3.85039 14.0092 3.85039 12.0004ZM17.6014 7.39935C17.2695 7.0674 16.7313 7.0674 16.3994 7.39935C16.0674 7.7313 16.0674 8.26949 16.3994 8.60143L18.9483 11.1504H11.0004C10.5309 11.1504 10.1504 11.5309 10.1504 12.0004C10.1504 12.4698 10.5309 12.8504 11.0004 12.8504H18.9483L16.3994 15.3993C16.0674 15.7313 16.0674 16.2695 16.3994 16.6014C16.7313 16.9334 17.2695 16.9334 17.6014 16.6014L21.6014 12.6014C21.9334 12.2695 21.9334 11.7313 21.6014 11.3993L17.6014 7.39935Z" fill="#FF3B30"/>
</svg>
