<svg width="12" height="10" viewBox="0 0 12 10" fill="none" xmlns="http://www.w3.org/2000/svg">
<path fill-rule="evenodd" clip-rule="evenodd" d="M9.68137 1.71813L10.6924 0.707107L9.98528 0L8.85944 1.12584C8.02765 0.59983 7.05541 0.207112 6.00009 0.207112C4.64542 0.207112 3.42765 0.854222 2.46812 1.59971C1.50363 2.34905 0.748377 3.23779 0.307589 3.81307C0.108212 4.07039 0 4.38669 0 4.71225C0 5.0378 0.108206 5.35409 0.307572 5.61141C0.72191 6.15217 1.41412 6.96992 2.29679 7.6885L0.792893 9.19239L1.5 9.8995L3.11633 8.28316C3.95349 8.81694 4.93443 9.21739 6.00009 9.21739C7.35475 9.21739 8.57253 8.57028 9.53206 7.82479C10.4972 7.07492 11.2529 6.18545 11.6935 5.61021L11.6936 5.61014C12.1023 5.07645 12.102 4.34852 11.6938 3.81467L11.2966 4.11835L11.6935 3.81429C11.2759 3.26905 10.5752 2.44151 9.68137 1.71813ZM8.13186 1.85342C7.46095 1.46113 6.73933 1.20711 6.00009 1.20711C4.96197 1.20711 3.95861 1.70805 3.08164 2.38939C2.21031 3.06635 1.51409 3.8825 1.1005 4.4224L1.09844 4.42509L1.09843 4.42508C1.03463 4.50721 1 4.60825 1 4.71225C1 4.81625 1.03463 4.91729 1.09843 4.99942L1.10051 5.00209L1.1005 5.0021C1.50237 5.52671 2.17109 6.31213 3.00802 6.97726L4.11168 5.87361C3.90359 5.53592 3.78355 5.13821 3.78355 4.71245C3.78355 3.48832 4.77591 2.49597 6.00004 2.49597C6.42579 2.49597 6.82351 2.61601 7.16119 2.82409L8.13186 1.85342ZM7.87293 3.52656L8.96989 2.42961C9.8171 3.09834 10.494 3.89291 10.8995 4.42217C11.0337 4.59778 11.0333 4.82757 10.8996 5.00217C10.486 5.54207 9.78983 6.35818 8.91854 7.03511C8.04157 7.71645 7.03821 8.21739 6.00009 8.21739C5.25161 8.21739 4.52119 7.95698 3.84319 7.55631L4.81415 6.58535C5.15707 6.80294 5.56384 6.92894 6.00004 6.92894C7.22417 6.92894 8.21653 5.93658 8.21653 4.71245C8.21653 4.27626 8.09053 3.86949 7.87293 3.52656ZM6.41625 3.56903C6.2864 3.52175 6.14623 3.49597 6.00004 3.49597C5.32819 3.49597 4.78355 4.04061 4.78355 4.71245C4.78355 4.85865 4.80934 4.99882 4.85662 5.12866L6.41625 3.56903ZM5.55467 5.84483L7.13242 4.26708C7.18671 4.40501 7.21653 4.55525 7.21653 4.71245C7.21653 5.3843 6.67189 5.92894 6.00004 5.92894C5.84283 5.92894 5.69259 5.89912 5.55467 5.84483Z" fill="#666666" fill-opacity="0.5"/>
</svg>
