<svg width="16" height="16" viewBox="0 0 16 16" fill="none" xmlns="http://www.w3.org/2000/svg">
<path d="M11.25 14.5001C11.25 14.699 11.171 14.8898 11.0304 15.0304C10.8897 15.1711 10.6989 15.2501 10.5 15.2501H5.50002C5.30111 15.2501 5.11035 15.1711 4.96969 15.0304C4.82904 14.8898 4.75002 14.699 4.75002 14.5001C4.75002 14.3012 4.82904 14.1104 4.96969 13.9698C5.11035 13.8291 5.30111 13.7501 5.50002 13.7501H10.5C10.6989 13.7501 10.8897 13.8291 11.0304 13.9698C11.171 14.1104 11.25 14.3012 11.25 14.5001ZM13.75 6.5001C13.7477 7.39465 13.5378 8.27647 13.1369 9.07614C12.7359 9.87581 12.1548 10.5715 11.4393 11.1085C11.3796 11.1547 11.3315 11.2141 11.2986 11.2821C11.2658 11.3501 11.2491 11.4247 11.25 11.5002C11.2496 11.8316 11.1178 12.1493 10.8835 12.3836C10.6491 12.6179 10.3314 12.7497 10 12.7501H6.00002C5.66862 12.7497 5.35088 12.6179 5.11654 12.3836C4.8822 12.1492 4.75039 11.8315 4.75002 11.5001V11.4859C4.74883 11.4099 4.72986 11.3353 4.69464 11.268C4.65942 11.2007 4.60893 11.1426 4.54721 11.0983C3.83589 10.5681 3.25792 9.87934 2.85918 9.08679C2.46044 8.29424 2.25189 7.41967 2.25009 6.53247C2.23296 3.41816 4.75034 0.82497 7.86184 0.751658C8.62835 0.733248 9.3908 0.868322 10.1043 1.14893C10.8179 1.42955 11.4681 1.85003 12.0167 2.38564C12.5654 2.92125 13.0013 3.56118 13.299 4.26778C13.5967 4.97437 13.75 5.73336 13.75 6.5001ZM12.25 6.5001C12.25 5.93332 12.1367 5.37227 11.9166 4.84996C11.6965 4.32765 11.3742 3.85463 10.9686 3.45874C10.563 3.06285 10.0824 2.75208 9.55487 2.54473C9.02739 2.33738 8.46376 2.23763 7.89715 2.25135C5.59777 2.30541 3.7374 4.22222 3.75009 6.52416C3.75149 7.18006 3.90574 7.82662 4.20059 8.41251C4.49545 8.99841 4.92279 9.50753 5.44871 9.89947H5.44877C5.66347 10.0606 5.8437 10.2632 5.97881 10.4952C6.11391 10.7271 6.20116 10.9838 6.2354 11.2501H9.76577C9.79858 10.9857 9.88413 10.7306 10.0174 10.4999C10.1506 10.2692 10.3288 10.0675 10.5414 9.90697C11.0737 9.5131 11.5057 8.99944 11.8025 8.40756C12.0994 7.81569 12.2527 7.16223 12.25 6.5001ZM8.66602 3.57447C8.56981 3.55222 8.47015 3.54919 8.37276 3.56556C8.27538 3.58193 8.18218 3.61736 8.09852 3.66984C8.01487 3.72232 7.9424 3.7908 7.88527 3.87135C7.82815 3.9519 7.7875 4.04295 7.76565 4.13925C7.7438 4.23556 7.74118 4.33523 7.75795 4.43255C7.77472 4.52987 7.81054 4.62291 7.86336 4.70635C7.91619 4.78979 7.98496 4.86198 8.06575 4.91877C8.14654 4.97556 8.23775 5.01583 8.33415 5.03728C8.60923 5.10062 8.86094 5.24005 9.06054 5.43965C9.26013 5.63924 9.39956 5.89096 9.4629 6.16603C9.50838 6.35848 9.62804 6.52518 9.79581 6.62985C9.96359 6.73452 10.1659 6.76869 10.3588 6.72493C10.5516 6.68117 10.7194 6.56301 10.8255 6.39618C10.9317 6.22934 10.9677 6.02733 10.9256 5.8341C10.7989 5.28341 10.5198 4.77948 10.1202 4.3799C9.72064 3.98033 9.21671 3.70122 8.66602 3.57447Z" fill="#027FC6"/>
</svg>
