<svg width="24" height="24" viewBox="0 0 24 24" fill="none" xmlns="http://www.w3.org/2000/svg">
<path fill-rule="evenodd" clip-rule="evenodd" d="M6.60506 6.51369C8.19324 7.05866 9.85656 5.96481 10.152 4.45566C10.3337 3.67131 10.5469 3.32831 10.7585 3.15276C10.9627 2.98331 11.311 2.8499 12.0678 2.8499C12.6534 2.8499 12.9858 2.9972 13.2029 3.20121C13.4364 3.42064 13.6529 3.81461 13.7828 4.52733L13.7828 4.52733L13.7836 4.53179C13.939 5.35906 14.5085 5.9829 15.1706 6.32801C15.8344 6.6741 16.6673 6.7831 17.4526 6.50667C17.4635 6.50282 17.4743 6.49876 17.4851 6.49447C18.2382 6.19422 18.6476 6.20015 18.8976 6.28459C19.1435 6.36764 19.4256 6.59071 19.7745 7.18195C20.1312 7.78626 20.1782 8.10871 20.1373 8.32677C20.0944 8.55505 19.9134 8.89261 19.2769 9.42079L19.2652 9.43063C17.988 10.5298 17.988 12.47 19.2652 13.5692L19.2769 13.579C19.9134 14.1072 20.0944 14.4448 20.1373 14.673C20.1782 14.8911 20.1312 15.2135 19.7745 15.8179C19.4276 16.4057 19.1412 16.6391 18.8815 16.7327C18.6163 16.8283 18.1991 16.8427 17.4483 16.5867C15.9255 16.0534 14.0757 16.9607 13.7813 18.6707C13.6506 19.4304 13.4402 19.7311 13.2522 19.8766C13.0496 20.0336 12.6965 20.1499 11.9696 20.1499C11.27 20.1499 10.91 20.0197 10.6985 19.85C10.4935 19.6855 10.2858 19.3693 10.1571 18.6661C9.86021 16.959 8.01245 16.0539 6.49095 16.5867C5.74019 16.8427 5.32299 16.8283 5.05777 16.7327C4.79804 16.6391 4.51173 16.4057 4.16474 15.8179C4.15999 15.8098 4.1551 15.8018 4.15008 15.7939C3.84502 15.314 3.81312 14.9814 3.8777 14.72C3.95028 14.4261 4.18714 14.0488 4.75639 13.5824L4.77218 13.5692C6.0714 12.4511 5.92872 10.5133 4.67773 9.52695C4.11012 8.97065 3.93291 8.61698 3.89173 8.36068C3.85254 8.11676 3.90884 7.78503 4.25564 7.19423C4.57369 6.69771 4.86728 6.48707 5.15485 6.39848C5.46361 6.30337 5.90773 6.30471 6.60506 6.51369ZM12.0678 1.1499C11.1564 1.1499 10.3272 1.3015 9.67284 1.84454C9.02708 2.38042 8.70193 3.1743 8.4918 4.08974C8.48927 4.10079 8.48695 4.11188 8.48486 4.12302C8.37881 4.68772 7.70728 5.09955 7.14939 4.90314C7.13744 4.89893 7.12539 4.89499 7.11327 4.89132C6.24976 4.63007 5.42265 4.53716 4.65438 4.77382C3.86481 5.01705 3.2776 5.56381 2.81351 6.29393C2.80849 6.30182 2.80361 6.3098 2.79885 6.31785C2.3671 7.04936 2.081 7.80723 2.21326 8.63037C2.34301 9.43791 2.84661 10.1205 3.52837 10.7806C3.55358 10.805 3.58028 10.8278 3.60831 10.8489C4.07828 11.2028 4.11397 11.886 3.66963 12.2751C2.96782 12.852 2.42368 13.5172 2.2273 14.3123C2.02312 15.1389 2.23318 15.9422 2.70775 16.6938C3.14459 17.4307 3.69074 18.0472 4.48161 18.3321C5.27086 18.6164 6.12849 18.507 7.04384 18.1942L7.04385 18.1943L7.05126 18.1917C7.68635 17.9681 8.38473 18.3907 8.48258 18.9591L8.48254 18.9591L8.48403 18.9673C8.64976 19.8765 8.98147 20.652 9.63472 21.1761C10.2818 21.6951 11.0992 21.8499 11.9696 21.8499C12.8128 21.8499 13.6372 21.7287 14.2932 21.2207C14.9638 20.7013 15.2931 19.9094 15.4567 18.9591C15.5546 18.3907 16.2529 17.9681 16.888 18.1917L16.888 18.1917L16.8954 18.1942C17.8108 18.507 18.6684 18.6164 19.4577 18.3321C20.2528 18.0457 20.8005 17.4241 21.2386 16.682C21.6669 15.9563 21.9633 15.1862 21.808 14.3593C21.6551 13.5451 21.1032 12.8867 20.3693 12.2764C19.8867 11.8564 19.8867 11.1434 20.3693 10.7234C21.1032 10.1131 21.6551 9.45474 21.808 8.64054C21.9633 7.81359 21.6669 7.04354 21.2386 6.31785C20.8025 5.57909 20.2505 4.94717 19.4416 4.67396C18.6423 4.40404 17.7825 4.54855 16.8746 4.90776C16.5834 5.00566 16.2448 4.97089 15.9564 4.82055C15.6625 4.6673 15.4962 4.43693 15.4547 4.21969C15.2901 3.31855 14.967 2.52609 14.367 1.96234C13.7501 1.38261 12.954 1.1499 12.0678 1.1499ZM9.84971 11.4999C9.84971 10.3125 10.8123 9.3499 11.9997 9.3499C13.1871 9.3499 14.1497 10.3125 14.1497 11.4999C14.1497 12.6873 13.1871 13.6499 11.9997 13.6499C10.8123 13.6499 9.84971 12.6873 9.84971 11.4999ZM11.9997 7.6499C9.87341 7.6499 8.14971 9.37361 8.14971 11.4999C8.14971 13.6262 9.87341 15.3499 11.9997 15.3499C14.126 15.3499 15.8497 13.6262 15.8497 11.4999C15.8497 9.37361 14.126 7.6499 11.9997 7.6499Z" fill="#7C8DB5"/>
</svg>
