<svg width="24" height="24" viewBox="0 0 24 24" fill="none" xmlns="http://www.w3.org/2000/svg">
<path fill-rule="evenodd" clip-rule="evenodd" d="M17.8504 6.77768C17.8504 6.20861 17.8511 5.7989 17.8785 5.47874C17.9066 5.15175 17.9558 5.03179 17.9793 4.99278C17.9853 4.98271 17.9877 4.98098 17.9908 4.97867L17.9913 4.97831C17.9978 4.97356 18.0252 4.9551 18.0948 4.93363C18.2507 4.88552 18.5216 4.8499 19.0004 4.8499C19.4792 4.8499 19.7501 4.88552 19.906 4.93363C19.9755 4.9551 20.003 4.97356 20.0095 4.97831L20.0099 4.97867C20.0131 4.98098 20.0155 4.98271 20.0215 4.99278C20.0449 5.03179 20.0942 5.15175 20.1222 5.47874C20.1497 5.7989 20.1504 6.20861 20.1504 6.77768V6.79074V6.80389V6.81713V6.83045V6.84386V6.85735V6.87092V6.88458V6.89833V6.91216V6.92607V6.94006V6.95413V6.96829V6.98253V6.99685V7.01125V7.02573V7.0403V7.05494V7.06966V7.08446V7.09934V7.1143V7.12934V7.14446V7.15965V7.17492V7.19027V7.20569V7.2212V7.23677V7.25243V7.26815V7.28396V7.29983V7.31579V7.33181V7.34791V7.36408V7.38033V7.39665V7.41304V7.4295V7.44603V7.46264V7.47932V7.49606V7.51288V7.52977V7.54672V7.56375V7.58084V7.59801V7.61524V7.63254V7.64991V7.66734V7.68484V7.70241V7.72004V7.73774V7.75551V7.77334V7.79123V7.80919V7.82722V7.84531V7.86346V7.88167V7.89995V7.91829V7.93669V7.95516V7.97368V7.99227V8.01091V8.02962V8.04839V8.06722V8.0861V8.10505V8.12405V8.14312V8.16224V8.18142V8.20065V8.21995V8.2393V8.25871V8.27817V8.29769V8.31726V8.33689V8.35657V8.37631V8.3961V8.41595V8.43585V8.4558V8.47581V8.49586V8.51597V8.53613V8.55635V8.57661V8.59692V8.61729V8.6377V8.65817V8.67868V8.69924V8.71985V8.74051V8.76122V8.78197V8.80278V8.82363V8.84452V8.86546V8.88645V8.90748V8.92856V8.94969V8.97086V8.99207V9.01332V9.03462V9.05597V9.07735V9.09878V9.12025V9.14177V9.16332V9.18492V9.20655V9.22823V9.24995V9.2717V9.2935V9.31533V9.33721V9.35912V9.38107V9.40306V9.42509V9.44715V9.46925V9.49139V9.51356V9.53577V9.55802V9.5803V9.60261V9.62496V9.64734V9.66976V9.69221V9.71469V9.73721V9.75975V9.78233V9.80495V9.82759V9.85027V9.87297V9.89571V9.91847V9.94127V9.96409V9.98695V10.0098V10.0327V10.0557V10.0786V10.1016V10.1247V10.1477V10.1708V10.1939V10.217V10.2402V10.2633V10.2865V10.3098V10.333V10.3563V10.3796V10.4029V10.4262V10.4496V10.473V10.4964V10.5198V10.5433V10.5667V10.5902V10.6137V10.6373V10.6608V10.6844V10.708V10.7316V10.7552V10.7789V10.8025V10.8262V10.8499V10.8736V10.8973V10.921V10.9448V10.9686V10.9924V11.0162V11.04V11.0638V11.0876V11.1115V11.1353V11.1592V11.1831V11.207V11.2309V11.2548V11.2788V11.3027V11.3267V11.3506V11.3746V11.3986V11.4226V11.4466V11.4706V11.4946V11.5186V11.5426V11.5666V11.5907V11.6147V11.6388V11.6628V11.6869V11.7109V11.735V11.7591V11.7831V11.8072V11.8313V11.8554V11.8795V11.9036V11.9276V11.9517V11.9758V11.9999V12.024V12.0481V12.0722V12.0963V12.1203V12.1444V12.1685V12.1926V12.2167V12.2407V12.2648V12.2889V12.3129V12.337V12.361V12.3851V12.4091V12.4332V12.4572V12.4812V12.5052V12.5292V12.5533V12.5772V12.6012V12.6252V12.6492V12.6731V12.6971V12.721V12.745V12.7689V12.7928V12.8167V12.8406V12.8645V12.8883V12.9122V12.936V12.9598V12.9837V13.0074V13.0312V13.055V13.0788V13.1025V13.1262V13.1499V13.1736V13.1973V13.2209V13.2446V13.2682V13.2918V13.3154V13.339V13.3625V13.3861V13.4096V13.4331V13.4565V13.48V13.5034V13.5268V13.5502V13.5736V13.5969V13.6202V13.6435V13.6668V13.69V13.7133V13.7365V13.7596V13.7828V13.8059V13.829V13.8521V13.8751V13.8982V13.9212V13.9441V13.9671V13.99V14.0129V14.0357V14.0585V14.0813V14.1041V14.1268V14.1495V14.1722V14.1949V14.2175V14.24V14.2626V14.2851V14.3076V14.33V14.3525V14.3748V14.3972V14.4195V14.4418V14.464V14.4862V14.5084V14.5306V14.5527V14.5747V14.5967V14.6187V14.6407V14.6626V14.6845V14.7063V14.7281V14.7499V14.7716V14.7933V14.8149V14.8365V14.858V14.8795V14.901V14.9224V14.9438V14.9652V14.9865V15.0077V15.0289V15.0501V15.0712V15.0923V15.1134V15.1343V15.1553V15.1762V15.197V15.2178V15.2386V15.2593V15.2799V15.3006V15.3211V15.3416V15.3621V15.3825V15.4029V15.4232V15.4435V15.4637V15.4838V15.5039V15.524V15.544V15.564V15.5839V15.6037V15.6235V15.6432V15.6629V15.6825V15.7021V15.7216V15.7411V15.7605V15.7799V15.7991V15.8184V15.8376V15.8567V15.8757V15.8948V15.9137V15.9326V15.9514V15.9702V15.9889V16.0075V16.0261V16.0446V16.0631V16.0815V16.0999V16.1181V16.1363V16.1545V16.1726V16.1906V16.2086V16.2265V16.2443V16.2621V16.2798V16.2974V16.315V16.3325V16.3499V16.3673V16.3846V16.4018V16.419V16.4361V16.4531V16.47V16.4869V16.5037V16.5205V16.5372V16.5538V16.5703V16.5868V16.6032V16.6195V16.6357V16.6519V16.668V16.684V16.7V16.7158V16.7316V16.7474V16.763V16.7786V16.7941V16.8095V16.8249V16.8402V16.8553V16.8705V16.8855V16.9005V16.9153V16.9301V16.9449V16.9595V16.9741V16.9886V17.003V17.0173V17.0315V17.0457V17.0597V17.0737V17.0876V17.1015V17.1152V17.1289V17.1425V17.1559V17.1694V17.1827V17.1959V17.2091V17.2221C20.1504 17.8943 20.1122 18.3496 20.0494 18.6585C19.9862 18.9688 19.9127 19.0564 19.9001 19.0697C19.8957 19.0745 19.8916 19.0783 19.8785 19.0844C19.8616 19.0924 19.8245 19.1063 19.7519 19.1188C19.5863 19.1473 19.3691 19.1499 19.0004 19.1499C18.626 19.1499 18.406 19.1473 18.2391 19.1187C18.1661 19.1062 18.1294 19.0923 18.1133 19.0847C18.1013 19.079 18.0984 19.076 18.0949 19.0723C18.0839 19.0605 18.0113 18.9741 17.9491 18.662C17.8873 18.3519 17.8504 17.8955 17.8504 17.2221V6.77768ZM19.0004 3.1499C18.0341 3.1499 17.0412 3.25204 16.5215 4.11814C16.2949 4.49579 16.2192 4.93139 16.1847 5.33356C16.1504 5.73466 16.1504 6.21662 16.1504 6.74631V6.74633V6.77768V17.2221C16.1504 17.9376 16.188 18.5229 16.2818 18.9941C16.3753 19.4632 16.5394 19.8976 16.8529 20.2331C17.1821 20.5854 17.5838 20.7312 17.952 20.7943C18.2779 20.8501 18.6418 20.85 18.9601 20.8499L19.0004 20.8499L19.0401 20.8499C19.3536 20.85 19.715 20.8501 20.0402 20.7942C20.4072 20.731 20.8077 20.5855 21.1373 20.2356C21.452 19.9017 21.6193 19.4685 21.7152 18.9976C21.8113 18.5252 21.8504 17.9389 21.8504 17.2221V17.2091V17.1959V17.1827V17.1694V17.1559V17.1425V17.1289V17.1152V17.1015V17.0876V17.0737V17.0597V17.0457V17.0315V17.0173V17.003V16.9886V16.9741V16.9595V16.9449V16.9301V16.9153V16.9005V16.8855V16.8705V16.8553V16.8402V16.8249V16.8095V16.7941V16.7786V16.763V16.7474V16.7316V16.7158V16.7V16.684V16.668V16.6519V16.6357V16.6195V16.6032V16.5868V16.5703V16.5538V16.5372V16.5205V16.5037V16.4869V16.47V16.4531V16.4361V16.419V16.4018V16.3846V16.3673V16.3499V16.3325V16.315V16.2974V16.2798V16.2621V16.2443V16.2265V16.2086V16.1906V16.1726V16.1545V16.1363V16.1181V16.0999V16.0815V16.0631V16.0446V16.0261V16.0075V15.9889V15.9702V15.9514V15.9326V15.9137V15.8948V15.8757V15.8567V15.8376V15.8184V15.7991V15.7799V15.7605V15.7411V15.7216V15.7021V15.6825V15.6629V15.6432V15.6235V15.6037V15.5839V15.564V15.544V15.524V15.5039V15.4838V15.4637V15.4435V15.4232V15.4029V15.3825V15.3621V15.3416V15.3211V15.3006V15.2799V15.2593V15.2386V15.2178V15.197V15.1762V15.1553V15.1343V15.1134V15.0923V15.0712V15.0501V15.0289V15.0077V14.9865V14.9652V14.9438V14.9224V14.901V14.8795V14.858V14.8365V14.8149V14.7933V14.7716V14.7499V14.7281V14.7063V14.6845V14.6626V14.6407V14.6187V14.5967V14.5747V14.5527V14.5306V14.5084V14.4862V14.464V14.4418V14.4195V14.3972V14.3748V14.3525V14.33V14.3076V14.2851V14.2626V14.24V14.2175V14.1949V14.1722V14.1495V14.1268V14.1041V14.0813V14.0585V14.0357V14.0129V13.99V13.9671V13.9441V13.9212V13.8982V13.8751V13.8521V13.829V13.8059V13.7828V13.7596V13.7365V13.7133V13.69V13.6668V13.6435V13.6202V13.5969V13.5736V13.5502V13.5268V13.5034V13.48V13.4565V13.4331V13.4096V13.3861V13.3625V13.339V13.3154V13.2918V13.2682V13.2446V13.2209V13.1973V13.1736V13.1499V13.1262V13.1025V13.0788V13.055V13.0312V13.0074V12.9837V12.9598V12.936V12.9122V12.8883V12.8645V12.8406V12.8167V12.7928V12.7689V12.745V12.721V12.6971V12.6731V12.6492V12.6252V12.6012V12.5772V12.5533V12.5292V12.5052V12.4812V12.4572V12.4332V12.4091V12.3851V12.361V12.337V12.3129V12.2889V12.2648V12.2407V12.2167V12.1926V12.1685V12.1444V12.1203V12.0963V12.0722V12.0481V12.024V11.9999V11.9758V11.9517V11.9276V11.9036V11.8795V11.8554V11.8313V11.8072V11.7831V11.7591V11.735V11.7109V11.6869V11.6628V11.6388V11.6147V11.5907V11.5666V11.5426V11.5186V11.4946V11.4706V11.4466V11.4226V11.3986V11.3746V11.3506V11.3267V11.3027V11.2788V11.2548V11.2309V11.207V11.1831V11.1592V11.1353V11.1115V11.0876V11.0638V11.04V11.0162V10.9924V10.9686V10.9448V10.921V10.8973V10.8736V10.8499V10.8262V10.8025V10.7789V10.7552V10.7316V10.708V10.6844V10.6608V10.6373V10.6137V10.5902V10.5667V10.5433V10.5198V10.4964V10.473V10.4496V10.4262V10.4029V10.3796V10.3563V10.333V10.3098V10.2865V10.2633V10.2402V10.217V10.1939V10.1708V10.1477V10.1247V10.1016V10.0786V10.0557V10.0327V10.0098V9.98695V9.96409V9.94127V9.91847V9.89571V9.87297V9.85027V9.82759V9.80495V9.78233V9.75975V9.73721V9.71469V9.69221V9.66976V9.64734V9.62496V9.60261V9.5803V9.55802V9.53577V9.51356V9.49139V9.46925V9.44715V9.42509V9.40306V9.38107V9.35912V9.33721V9.31533V9.2935V9.2717V9.24995V9.22823V9.20655V9.18492V9.16332V9.14177V9.12025V9.09878V9.07735V9.05597V9.03462V9.01332V8.99207V8.97086V8.94969V8.92856V8.90748V8.88645V8.86546V8.84452V8.82363V8.80278V8.78197V8.76122V8.74051V8.71985V8.69924V8.67868V8.65817V8.6377V8.61729V8.59692V8.57661V8.55635V8.53613V8.51597V8.49586V8.47581V8.4558V8.43585V8.41595V8.3961V8.37631V8.35657V8.33689V8.31726V8.29769V8.27817V8.25871V8.2393V8.21995V8.20065V8.18142V8.16224V8.14312V8.12405V8.10505V8.0861V8.06722V8.04839V8.02962V8.01091V7.99227V7.97368V7.95516V7.93669V7.91829V7.89995V7.88167V7.86346V7.84531V7.82722V7.80919V7.79123V7.77334V7.75551V7.73774V7.72004V7.70241V7.68484V7.66734V7.64991V7.63254V7.61524V7.59801V7.58084V7.56375V7.54672V7.52977V7.51288V7.49606V7.47932V7.46264V7.44603V7.4295V7.41304V7.39665V7.38033V7.36408V7.34791V7.33181V7.31579V7.29983V7.28396V7.26815V7.25243V7.23677V7.2212V7.20569V7.19027V7.17492V7.15965V7.14446V7.12934V7.1143V7.09934V7.08446V7.06966V7.05494V7.0403V7.02573V7.01125V6.99685V6.98253V6.96829V6.95413V6.94006V6.92607V6.91216V6.89833V6.88458V6.87092V6.85735V6.84386V6.83045V6.81713V6.80389V6.79074V6.77768L21.8504 6.74631C21.8504 6.21662 21.8504 5.73466 21.816 5.33356C21.7816 4.93139 21.7059 4.49579 21.4793 4.11814C20.9596 3.25204 19.9667 3.1499 19.0004 3.1499ZM10.8794 9.49986C10.8544 9.7253 10.8534 9.98779 10.8534 10.3332L10.8534 13.9999L10.8534 17.6666C10.8534 17.6747 10.8533 17.6829 10.853 17.6911C10.8282 18.5506 10.9847 18.8411 11.0777 18.9407C11.158 19.0268 11.36 19.1499 12.0001 19.1499C12.6259 19.1499 12.8341 19.0283 12.9197 18.9375C13.0148 18.8367 13.1746 18.5456 13.1473 17.6938C13.147 17.6847 13.1469 17.6757 13.1469 17.6666V13.9999L13.1469 10.3332C13.1469 9.98779 13.1458 9.7253 13.1208 9.49986C13.0962 9.27769 13.0544 9.16401 13.0181 9.10336L13.0169 9.10131C12.9934 9.06158 12.8686 8.8499 12.0001 8.8499C11.1316 8.8499 11.0068 9.06158 10.9834 9.10131L10.9821 9.10336C10.9458 9.16401 10.904 9.27769 10.8794 9.49986ZM9.52377 8.22977C10.0027 7.43018 10.8882 7.1499 12.0001 7.1499C13.112 7.1499 13.9975 7.43018 14.4765 8.22977C14.6897 8.5858 14.7727 8.97212 14.8105 9.31244C14.8469 9.64089 14.8469 9.9935 14.8469 10.3085L14.8469 10.3332L14.8469 13.9999V17.6533C14.8765 18.6292 14.7266 19.4994 14.1564 20.1039C13.5739 20.7215 12.7543 20.8499 12.0001 20.8499C11.2386 20.8499 10.4157 20.723 9.83492 20.1007C9.26918 19.4946 9.12688 18.6234 9.15338 17.6546L9.15337 13.9999L9.15337 10.3332L9.15337 10.3085C9.15334 9.99349 9.15331 9.64089 9.18975 9.31244C9.2275 8.97212 9.31051 8.5858 9.52377 8.22977ZM3.87747 14.5195C3.85126 14.7833 3.85039 15.1017 3.85039 15.5277V18.2942C3.85039 18.7747 3.96657 18.9062 4.02288 18.9538C4.11449 19.0313 4.36244 19.1499 5.00039 19.1499C5.62409 19.1499 5.87584 19.0326 5.97243 18.9516C6.03324 18.9006 6.15039 18.7664 6.15039 18.2942V18.2871V18.28V18.2729V18.2658V18.2588V18.2517V18.2447V18.2377V18.2307V18.2237V18.2167V18.2098V18.2028V18.1959V18.189V18.1821V18.1752V18.1683V18.1615V18.1546V18.1478V18.141V18.1342V18.1274V18.1206V18.1138V18.1071V18.1003V18.0936V18.0869V18.0802V18.0735V18.0669V18.0602V18.0536V18.0469V18.0403V18.0337V18.0271V18.0205V18.014V18.0074V18.0009V17.9943V17.9878V17.9813V17.9748V17.9683V17.9619V17.9554V17.949V17.9425V17.9361V17.9297V17.9233V17.9169V17.9105V17.9042V17.8978V17.8915V17.8852V17.8789V17.8726V17.8663V17.86V17.8537V17.8475V17.8412V17.835V17.8288V17.8226V17.8164V17.8102V17.804V17.7979V17.7917V17.7856V17.7794V17.7733V17.7672V17.7611V17.755V17.7489V17.7429V17.7368V17.7308V17.7247V17.7187V17.7127V17.7067V17.7007V17.6947V17.6888V17.6828V17.6769V17.6709V17.665V17.6591V17.6532V17.6473V17.6414V17.6355V17.6296V17.6238V17.6179V17.6121V17.6062V17.6004V17.5946V17.5888V17.583V17.5772V17.5715V17.5657V17.5599V17.5542V17.5485V17.5427V17.537V17.5313V17.5256V17.5199V17.5142V17.5086V17.5029V17.4972V17.4916V17.4859V17.4803V17.4747V17.4691V17.4635V17.4579V17.4523V17.4467V17.4411V17.4356V17.43V17.4245V17.419V17.4134V17.4079V17.4024V17.3969V17.3914V17.3859V17.3804V17.3749V17.3695V17.364V17.3586V17.3531V17.3477V17.3423V17.3368V17.3314V17.326V17.3206V17.3152V17.3099V17.3045V17.2991V17.2937V17.2884V17.283V17.2777V17.2724V17.267V17.2617V17.2564V17.2511V17.2458V17.2405V17.2352V17.2299V17.2247V17.2194V17.2141V17.2089V17.2036V17.1984V17.1932V17.1879V17.1827V17.1775V17.1723V17.1671V17.1619V17.1567V17.1515V17.1463V17.1411V17.136V17.1308V17.1256V17.1205V17.1153V17.1102V17.1051V17.0999V17.0948V17.0897V17.0846V17.0795V17.0744V17.0693V17.0642V17.0591V17.054V17.0489V17.0438V17.0388V17.0337V17.0286V17.0236V17.0185V17.0135V17.0084V17.0034V16.9984V16.9933V16.9883V16.9833V16.9783V16.9733V16.9683V16.9633V16.9583V16.9533V16.9483V16.9433V16.9383V16.9333V16.9284V16.9234V16.9184V16.9135V16.9085V16.9035V16.8986V16.8936V16.8887V16.8837V16.8788V16.8739V16.8689V16.864V16.8591V16.8542V16.8492V16.8443V16.8394V16.8345V16.8296V16.8247V16.8198V16.8149V16.81V16.8051V16.8002V16.7953V16.7904V16.7856V16.7807V16.7758V16.7709V16.766V16.7612V16.7563V16.7514V16.7466V16.7417V16.7368V16.732V16.7271V16.7223V16.7174V16.7126V16.7077V16.7029V16.698V16.6932V16.6883V16.6835V16.6787V16.6738V16.669V16.6641V16.6593V16.6545V16.6496V16.6448V16.64V16.6352V16.6303V16.6255V16.6207V16.6158V16.611V16.6062V16.6014V16.5966V16.5917V16.5869V16.5821V16.5773V16.5725V16.5676V16.5628V16.558V16.5532V16.5484V16.5435V16.5387V16.5339V16.5291V16.5243V16.5195V16.5146V16.5098V16.505V16.5002V16.4954V16.4906V16.4857V16.4809V16.4761V16.4713V16.4665V16.4616V16.4568V16.452V16.4472V16.4424V16.4375V16.4327V16.4279V16.4231V16.4182V16.4134V16.4086V16.4037V16.3989V16.3941V16.3892V16.3844V16.3796V16.3747V16.3699V16.365V16.3602V16.3554V16.3505V16.3457V16.3408V16.336V16.3311V16.3263V16.3214V16.3165V16.3117V16.3068V16.3019V16.2971V16.2922V16.2873V16.2825V16.2776V16.2727V16.2678V16.2629V16.2581V16.2532V16.2483V16.2434V16.2385V16.2336V16.2287V16.2238V16.2189V16.214V16.209V16.2041V16.1992V16.1943V16.1894V16.1844V16.1795V16.1746V16.1696V16.1647V16.1597V16.1548V16.1498V16.1449V16.1399V16.1349V16.13V16.125V16.12V16.1151V16.1101V16.1051V16.1001V16.0951V16.0901V16.0851V16.0801V16.0751V16.0701V16.065V16.06V16.055V16.0499V16.0449V16.0399V16.0348V16.0298V16.0247V16.0197V16.0146V16.0095V16.0044V15.9994V15.9943V15.9892V15.9841V15.979V15.9739V15.9688V15.9637V15.9585V15.9534V15.9483V15.9431V15.938V15.9328V15.9277V15.9225V15.9174V15.9122V15.907V15.9018V15.8967V15.8915V15.8863V15.8811V15.8758V15.8706V15.8654V15.8602V15.8549V15.8497V15.8444V15.8392V15.8339V15.8287V15.8234V15.8181V15.8128V15.8075V15.8022V15.7969V15.7916V15.7863V15.7809V15.7756V15.7703V15.7649V15.7596V15.7542V15.7488V15.7435V15.7381V15.7327V15.7273V15.7219V15.7165V15.711V15.7056V15.7002V15.6947V15.6893V15.6838V15.6784V15.6729V15.6674V15.6619V15.6564V15.6509V15.6454V15.6399V15.6343V15.6288V15.6233V15.6177V15.6121V15.6066V15.601V15.5954V15.5898V15.5842V15.5786V15.573V15.5673V15.5617V15.5561V15.5504V15.5447V15.5428L6.14347 15.3405V15.3405C6.13242 15.0113 6.12377 14.7539 6.09921 14.5269C6.06973 14.2542 6.02532 14.1271 5.98998 14.0652L5.98931 14.0637C5.9803 14.0436 5.89372 13.8499 5.00039 13.8499C4.10315 13.8499 3.99867 14.0457 3.98429 14.0727L3.98319 14.0747C3.94871 14.1334 3.90364 14.2562 3.87747 14.5195ZM2.51759 13.2133C3.00785 12.3792 3.92559 12.1499 5.00039 12.1499C6.07716 12.1499 6.98614 12.3805 7.46662 13.2228C7.67392 13.5862 7.75082 13.9878 7.78936 14.344C7.82138 14.6401 7.83244 14.9751 7.84332 15.3045C7.84545 15.3691 7.84758 15.4335 7.84985 15.4974L7.85014 15.5071L7.85039 15.5277V15.5334V15.5391V15.5447V15.5504V15.5561V15.5617V15.5673V15.573V15.5786V15.5842V15.5898V15.5954V15.601V15.6066V15.6121V15.6177V15.6233V15.6288V15.6343V15.6399V15.6454V15.6509V15.6564V15.6619V15.6674V15.6729V15.6784V15.6838V15.6893V15.6947V15.7002V15.7056V15.711V15.7165V15.7219V15.7273V15.7327V15.7381V15.7435V15.7488V15.7542V15.7596V15.7649V15.7703V15.7756V15.7809V15.7863V15.7916V15.7969V15.8022V15.8075V15.8128V15.8181V15.8234V15.8287V15.8339V15.8392V15.8444V15.8497V15.8549V15.8602V15.8654V15.8706V15.8758V15.8811V15.8863V15.8915V15.8967V15.9018V15.907V15.9122V15.9174V15.9225V15.9277V15.9328V15.938V15.9431V15.9483V15.9534V15.9585V15.9637V15.9688V15.9739V15.979V15.9841V15.9892V15.9943V15.9994V16.0044V16.0095V16.0146V16.0197V16.0247V16.0298V16.0348V16.0399V16.0449V16.0499V16.055V16.06V16.065V16.0701V16.0751V16.0801V16.0851V16.0901V16.0951V16.1001V16.1051V16.1101V16.1151V16.12V16.125V16.13V16.1349V16.1399V16.1449V16.1498V16.1548V16.1597V16.1647V16.1696V16.1746V16.1795V16.1844V16.1894V16.1943V16.1992V16.2041V16.209V16.214V16.2189V16.2238V16.2287V16.2336V16.2385V16.2434V16.2483V16.2532V16.2581V16.2629V16.2678V16.2727V16.2776V16.2825V16.2873V16.2922V16.2971V16.3019V16.3068V16.3117V16.3165V16.3214V16.3263V16.3311V16.336V16.3408V16.3457V16.3505V16.3554V16.3602V16.365V16.3699V16.3747V16.3796V16.3844V16.3892V16.3941V16.3989V16.4037V16.4086V16.4134V16.4182V16.4231V16.4279V16.4327V16.4375V16.4424V16.4472V16.452V16.4568V16.4616V16.4665V16.4713V16.4761V16.4809V16.4857V16.4906V16.4954V16.5002V16.505V16.5098V16.5146V16.5195V16.5243V16.5291V16.5339V16.5387V16.5435V16.5484V16.5532V16.558V16.5628V16.5676V16.5725V16.5773V16.5821V16.5869V16.5917V16.5966V16.6014V16.6062V16.611V16.6158V16.6207V16.6255V16.6303V16.6352V16.64V16.6448V16.6496V16.6545V16.6593V16.6641V16.669V16.6738V16.6787V16.6835V16.6883V16.6932V16.698V16.7029V16.7077V16.7126V16.7174V16.7223V16.7271V16.732V16.7368V16.7417V16.7466V16.7514V16.7563V16.7612V16.766V16.7709V16.7758V16.7807V16.7856V16.7904V16.7953V16.8002V16.8051V16.81V16.8149V16.8198V16.8247V16.8296V16.8345V16.8394V16.8443V16.8492V16.8542V16.8591V16.864V16.8689V16.8739V16.8788V16.8837V16.8887V16.8936V16.8986V16.9035V16.9085V16.9135V16.9184V16.9234V16.9284V16.9333V16.9383V16.9433V16.9483V16.9533V16.9583V16.9633V16.9683V16.9733V16.9783V16.9833V16.9883V16.9933V16.9984V17.0034V17.0084V17.0135V17.0185V17.0236V17.0286V17.0337V17.0388V17.0438V17.0489V17.054V17.0591V17.0642V17.0693V17.0744V17.0795V17.0846V17.0897V17.0948V17.0999V17.1051V17.1102V17.1153V17.1205V17.1256V17.1308V17.136V17.1411V17.1463V17.1515V17.1567V17.1619V17.1671V17.1723V17.1775V17.1827V17.1879V17.1932V17.1984V17.2036V17.2089V17.2141V17.2194V17.2247V17.2299V17.2352V17.2405V17.2458V17.2511V17.2564V17.2617V17.267V17.2724V17.2777V17.283V17.2884V17.2937V17.2991V17.3045V17.3099V17.3152V17.3206V17.326V17.3314V17.3368V17.3423V17.3477V17.3531V17.3586V17.364V17.3695V17.3749V17.3804V17.3859V17.3914V17.3969V17.4024V17.4079V17.4134V17.419V17.4245V17.43V17.4356V17.4411V17.4467V17.4523V17.4579V17.4635V17.4691V17.4747V17.4803V17.4859V17.4916V17.4972V17.5029V17.5086V17.5142V17.5199V17.5256V17.5313V17.537V17.5427V17.5485V17.5542V17.5599V17.5657V17.5715V17.5772V17.583V17.5888V17.5946V17.6004V17.6062V17.6121V17.6179V17.6238V17.6296V17.6355V17.6414V17.6473V17.6532V17.6591V17.665V17.6709V17.6769V17.6828V17.6888V17.6947V17.7007V17.7067V17.7127V17.7187V17.7247V17.7308V17.7368V17.7429V17.7489V17.755V17.7611V17.7672V17.7733V17.7794V17.7856V17.7917V17.7979V17.804V17.8102V17.8164V17.8226V17.8288V17.835V17.8412V17.8475V17.8537V17.86V17.8663V17.8726V17.8789V17.8852V17.8915V17.8978V17.9042V17.9105V17.9169V17.9233V17.9297V17.9361V17.9425V17.949V17.9554V17.9619V17.9683V17.9748V17.9813V17.9878V17.9943V18.0009V18.0074V18.014V18.0205V18.0271V18.0337V18.0403V18.0469V18.0536V18.0602V18.0669V18.0735V18.0802V18.0869V18.0936V18.1003V18.1071V18.1138V18.1206V18.1274V18.1342V18.141V18.1478V18.1546V18.1615V18.1683V18.1752V18.1821V18.189V18.1959V18.2028V18.2098V18.2167V18.2237V18.2307V18.2377V18.2447V18.2517V18.2588V18.2658V18.2729V18.28V18.2871V18.2942C7.85039 19.0373 7.65868 19.7559 7.06506 20.254C6.50723 20.722 5.75897 20.8499 5.00039 20.8499C4.23438 20.8499 3.48232 20.7233 2.92492 20.2517C2.33223 19.7503 2.15039 19.0289 2.15039 18.2942V15.5277V15.5002V15.5002C2.15037 15.1085 2.15035 14.7082 2.18581 14.3514C2.22214 13.9858 2.30207 13.58 2.51759 13.2133Z" fill="#347AE2"/>
</svg>
