<svg width="24" height="24" viewBox="0 0 24 24" fill="none" xmlns="http://www.w3.org/2000/svg">
<path fill-rule="evenodd" clip-rule="evenodd" d="M5.71468 4.8499C5.51352 4.8499 5.30179 4.93721 5.13192 5.12439C4.95956 5.31431 4.85039 5.58809 4.85039 5.88879V19.111C4.85039 19.4117 4.95956 19.6855 5.13192 19.8754C5.3018 20.0626 5.51353 20.1499 5.71468 20.1499H15.1504V11.9999V5.88879C15.1504 5.58809 15.0412 5.31431 14.8689 5.12439C14.699 4.93721 14.4873 4.8499 14.2861 4.8499H5.71468ZM5.71468 21.8499H16.0004H18.0004C18.7563 21.8499 19.4812 21.5496 20.0156 21.0152C20.5501 20.4807 20.8504 19.7558 20.8504 18.9999V11.9999C20.8504 11.5305 20.4698 11.1499 20.0004 11.1499H16.8504V5.88879C16.8504 5.18757 16.5983 4.50045 16.1277 3.9819C15.6546 3.46061 14.9943 3.1499 14.2861 3.1499H5.71468C5.00651 3.1499 4.34617 3.46061 3.87307 3.9819C3.40244 4.50045 3.15039 5.18757 3.15039 5.88879V19.111C3.15039 19.8122 3.40244 20.4993 3.87307 21.0179C4.34617 21.5392 5.00651 21.8499 5.71468 21.8499ZM16.8504 20.1499V12.8499H19.1504V18.9999C19.1504 19.3049 19.0292 19.5974 18.8136 19.8131C18.5979 20.0287 18.3054 20.1499 18.0004 20.1499H16.8504ZM8.00039 8.1499C7.53095 8.1499 7.15039 8.53046 7.15039 8.9999C7.15039 9.46934 7.53095 9.8499 8.00039 9.8499H12.0004C12.4698 9.8499 12.8504 9.46934 12.8504 8.9999C12.8504 8.53046 12.4698 8.1499 12.0004 8.1499H8.00039ZM7.15039 11.9999C7.15039 11.5305 7.53095 11.1499 8.00039 11.1499H12.0004C12.4698 11.1499 12.8504 11.5305 12.8504 11.9999C12.8504 12.4693 12.4698 12.8499 12.0004 12.8499H8.00039C7.53095 12.8499 7.15039 12.4693 7.15039 11.9999ZM8.00039 15.1499C7.53095 15.1499 7.15039 15.5305 7.15039 15.9999C7.15039 16.4693 7.53095 16.8499 8.00039 16.8499H11.0004C11.4698 16.8499 11.8504 16.4693 11.8504 15.9999C11.8504 15.5305 11.4698 15.1499 11.0004 15.1499H8.00039Z" fill="#7C8DB5"/>
</svg>
