<svg width="24" height="24" viewBox="0 0 24 24" fill="none" xmlns="http://www.w3.org/2000/svg">
<path fill-rule="evenodd" clip-rule="evenodd" d="M3.8499 10.0004C3.8499 6.60384 6.60335 3.85039 9.9999 3.85039C13.3965 3.85039 16.1499 6.60384 16.1499 10.0004C16.1499 13.3969 13.3965 16.1504 9.9999 16.1504C6.60335 16.1504 3.8499 13.3969 3.8499 10.0004ZM9.9999 2.15039C5.66447 2.15039 2.1499 5.66496 2.1499 10.0004C2.1499 14.3358 5.66447 17.8504 9.9999 17.8504C11.8614 17.8504 13.5716 17.2024 14.9172 16.1198L20.3989 21.6014C20.7308 21.9334 21.269 21.9334 21.6009 21.6014C21.9329 21.2695 21.9329 20.7313 21.6009 20.3993L16.1193 14.9177C17.202 13.5721 17.8499 11.8619 17.8499 10.0004C17.8499 5.66496 14.3353 2.15039 9.9999 2.15039Z" fill="black"/>
</svg>
