<svg width="24" height="24" viewBox="0 0 24 24" fill="none" xmlns="http://www.w3.org/2000/svg">
<path fill-rule="evenodd" clip-rule="evenodd" d="M11.5502 3.85039C16.0808 3.85039 19.7002 7.46983 19.7002 12.0004C19.7002 12.9997 19.5182 13.9918 19.161 14.8847C19.078 15.0923 19.0801 15.3242 19.1668 15.5302L20.27 18.1504H17.1502C16.9572 18.1504 16.7699 18.2161 16.6192 18.3367C15.2549 19.4281 13.4388 20.1504 11.5502 20.1504C7.01964 20.1504 3.4002 16.5309 3.4002 12.0004C3.4002 7.46983 7.01964 3.85039 11.5502 3.85039ZM21.4002 12.0004C21.4002 6.53095 17.0196 2.15039 11.5502 2.15039C6.08075 2.15039 1.7002 6.53095 1.7002 12.0004C1.7002 17.4698 6.08075 21.8504 11.5502 21.8504C13.7501 21.8504 15.8345 21.0553 17.4408 19.8504H21.249C21.9999 19.8504 22.5081 19.085 22.2167 18.3929L20.865 15.1826C21.2235 14.1686 21.4002 13.0816 21.4002 12.0004ZM7.55021 11.3504C6.91509 11.3504 6.40021 11.8653 6.40021 12.5004C6.40021 13.1355 6.91509 13.6504 7.55021 13.6504C8.18534 13.6504 8.70021 13.1355 8.70021 12.5004C8.70021 11.8653 8.18534 11.3504 7.55021 11.3504ZM11.5502 11.3504C10.9151 11.3504 10.4002 11.8653 10.4002 12.5004C10.4002 13.1355 10.9151 13.6504 11.5502 13.6504C12.1853 13.6504 12.7002 13.1355 12.7002 12.5004C12.7002 11.8653 12.1853 11.3504 11.5502 11.3504ZM15.5502 11.3504C14.9151 11.3504 14.4002 11.8653 14.4002 12.5004C14.4002 13.1355 14.9151 13.6504 15.5502 13.6504C16.1853 13.6504 16.7002 13.1355 16.7002 12.5004C16.7002 11.8653 16.1853 11.3504 15.5502 11.3504Z" fill="#7C8DB5"/>
</svg>
