<svg width="24" height="24" viewBox="0 0 24 24" fill="none" xmlns="http://www.w3.org/2000/svg">
<path fill-rule="evenodd" clip-rule="evenodd" d="M6.85039 7.9999C6.85039 6.26021 8.26069 4.8499 10.0004 4.8499C11.7401 4.8499 13.1504 6.26021 13.1504 7.9999C13.1504 9.7396 11.7401 11.1499 10.0004 11.1499C8.26069 11.1499 6.85039 9.7396 6.85039 7.9999ZM10.0004 3.1499C7.32181 3.1499 5.15039 5.32132 5.15039 7.9999C5.15039 10.6785 7.32181 12.8499 10.0004 12.8499C12.679 12.8499 14.8504 10.6785 14.8504 7.9999C14.8504 5.32132 12.679 3.1499 10.0004 3.1499ZM4.85039 17.9166C4.85039 17.5136 5.17904 16.9978 6.21876 16.5387C7.20829 16.1017 8.58463 15.8499 10.0004 15.8499C11.3961 15.8499 12.7713 16.143 13.7683 16.6046C14.2672 16.8356 14.6332 17.0911 14.8634 17.3377C15.085 17.5752 15.148 17.7655 15.1503 17.9084C15.1422 17.9299 15.1054 17.998 14.9631 18.1087C14.7446 18.2785 14.3801 18.4615 13.8653 18.6269C12.845 18.9548 11.4367 19.1499 10.0004 19.1499C8.30189 19.1499 6.90375 18.952 5.96169 18.6315C5.48803 18.4703 5.18145 18.2954 5.00808 18.1424C4.84932 18.0023 4.85024 17.9285 4.85038 17.9173L4.85039 17.9166ZM15.1523 17.9009C15.1525 17.901 15.1523 17.9029 15.1509 17.9067C15.1514 17.9028 15.1521 17.9009 15.1523 17.9009ZM10.0004 14.1499C8.41615 14.1499 6.79249 14.4269 5.53202 14.9836C4.32174 15.518 3.15039 16.4606 3.15039 17.9166C3.15039 18.5455 3.46794 19.0506 3.88332 19.4171C4.28808 19.7743 4.82525 20.0405 5.41409 20.2409C6.59703 20.6434 8.19889 20.8499 10.0004 20.8499C11.5641 20.8499 13.1558 20.6406 14.3854 20.2454C14.9957 20.0493 15.5686 19.7912 16.0064 19.4509C16.4408 19.1133 16.8504 18.6033 16.8504 17.9166C16.8504 17.227 16.5365 16.6388 16.1062 16.1777C15.6801 15.7212 15.1085 15.3517 14.4825 15.0619C13.2295 14.4818 11.6047 14.1499 10.0004 14.1499ZM16.1543 11.9184C16.1993 11.4511 16.6146 11.1088 17.0819 11.1538C18.2961 11.2708 19.4226 11.5864 20.2738 12.0787C21.0981 12.5554 21.8504 13.3199 21.8504 14.3732C21.8504 14.9191 21.6414 15.4169 21.2353 15.8125C20.8523 16.1854 20.3295 16.4348 19.7322 16.6042C19.2806 16.7322 18.8107 16.4699 18.6826 16.0182C18.5546 15.5666 18.8169 15.0967 19.2686 14.9686C19.7161 14.8417 19.9433 14.6977 20.0492 14.5946C20.1318 14.5142 20.1504 14.4535 20.1504 14.3732C20.1504 14.2165 20.0332 13.9033 19.4228 13.5503C18.8392 13.2129 17.9657 12.9469 16.9189 12.846C16.4516 12.801 16.1093 12.3856 16.1543 11.9184ZM18.0004 3.1499C17.5309 3.1499 17.1504 3.53046 17.1504 3.9999C17.1504 4.46934 17.5309 4.8499 18.0004 4.8499C18.9117 4.8499 19.6504 5.58863 19.6504 6.4999C19.6504 7.41117 18.9117 8.1499 18.0004 8.1499C17.5309 8.1499 17.1504 8.53046 17.1504 8.9999C17.1504 9.46934 17.5309 9.8499 18.0004 9.8499C19.8505 9.8499 21.3504 8.35006 21.3504 6.4999C21.3504 4.64975 19.8505 3.1499 18.0004 3.1499Z" fill="#347AE2"/>
</svg>
