<svg width="24" height="24" viewBox="0 0 24 24" fill="none" xmlns="http://www.w3.org/2000/svg">
<path fill-rule="evenodd" clip-rule="evenodd" d="M8.89318 6.29011C8.95984 5.82468 9.10206 5.56798 9.30356 5.39527C9.63888 5.10786 10.3633 4.8499 12.0004 4.8499C13.6374 4.8499 14.3619 5.10786 14.6972 5.39527C14.899 5.56826 15.0414 5.82549 15.1079 6.29231C14.2017 6.18934 13.169 6.1499 12.0004 6.1499C10.8304 6.1499 9.79814 6.18947 8.89318 6.29011ZM7.15928 6.60308C7.20322 5.67755 7.42709 4.76464 8.19722 4.10453C9.02857 3.39195 10.3041 3.1499 12.0004 3.1499C13.6967 3.1499 14.9722 3.39195 15.8036 4.10453C16.5767 4.7672 16.7993 5.68464 16.842 6.61385C17.7276 6.86083 18.478 7.2341 19.0808 7.7976C20.2618 8.90148 20.6882 10.5593 20.8095 12.7388C20.8361 12.8211 20.8504 12.9088 20.8504 12.9999C20.8504 13.1576 20.8473 13.3168 20.8391 13.4765C20.847 13.7792 20.8504 14.091 20.8504 14.4117C20.8504 16.8465 20.5325 18.8445 19.0667 20.154C17.6397 21.4289 15.3378 21.8499 12.0004 21.8499C10.3156 21.8499 8.9164 21.7679 7.77163 21.5395C6.62261 21.3104 5.67061 20.9226 4.93507 20.2675C3.45564 18.9499 3.15039 16.8221 3.15039 13.9999C3.15039 13.7797 3.15225 13.5638 3.15638 13.3521C3.15213 13.2342 3.15039 13.1166 3.15039 12.9999C3.15039 12.933 3.15812 12.8679 3.17274 12.8054C3.26493 10.572 3.67223 8.85705 4.93507 7.73234C5.53568 7.19742 6.2806 6.84072 7.15928 6.60308ZM4.85739 13.3409C4.91133 10.9191 5.28007 9.70156 6.06572 9.00184C6.49683 8.61787 7.12817 8.32209 8.10415 8.12743C9.08438 7.93192 10.3519 7.8499 12.0004 7.8499C13.6497 7.8499 14.9146 7.93206 15.8918 8.13288C16.8627 8.3324 17.4896 8.63726 17.92 9.03952C18.6921 9.76126 19.065 11.0151 19.1372 13.4589C19.114 13.8252 19.059 14.1212 18.9617 14.3694C18.8374 14.6867 18.6286 14.9657 18.2266 15.2151C17.3438 15.7629 15.5696 16.1499 12.0064 16.1499C8.44362 16.1499 6.66562 15.763 5.77934 15.2146C5.37542 14.9647 5.1654 14.685 5.04035 14.3678C4.93234 14.0939 4.87591 13.7616 4.85739 13.3409ZM18.983 16.7429C18.8018 17.7422 18.4651 18.4118 17.9341 18.8862C17.0278 19.6959 15.3297 20.1499 12.0004 20.1499C10.3519 20.1499 9.08438 20.0679 8.10415 19.8724C7.12817 19.6777 6.49683 19.3819 6.06572 18.998C5.54809 18.537 5.21144 17.8512 5.02656 16.7443C6.3761 17.5115 8.56879 17.8499 12.0064 17.8499C15.4451 17.8499 17.6361 17.5113 18.983 16.7429ZM9.15039 13.9999C9.15039 13.5305 9.53095 13.1499 10.0004 13.1499H14.0004C14.4698 13.1499 14.8504 13.5305 14.8504 13.9999C14.8504 14.4693 14.4698 14.8499 14.0004 14.8499L10.0004 14.8499C9.53095 14.8499 9.15039 14.4693 9.15039 13.9999Z" fill="#347AE2"/>
</svg>
